<svg width="455" height="51" viewBox="0 0 455 51" fill="none" xmlns="http://www.w3.org/2000/svg">
<path d="M0 48H455" stroke="white" stroke-width="2"/>
<path d="M41.875 26.5C41.875 20.6042 40.5104 15.8646 37.7812 12.2812C35.0521 8.69792 31.4688 6.90625 27.0312 6.90625C22.7812 6.90625 19.3854 8.5 16.8438 11.6875C14.3229 14.875 13.0625 19.1875 13.0625 24.625C13.0625 30.5625 14.4375 35.3333 17.1875 38.9375C19.9583 42.5417 23.5521 44.3438 27.9688 44.3438C32.2396 44.3438 35.625 42.75 38.125 39.5625C40.625 36.375 41.875 32.0208 41.875 26.5ZM27.5312 2.25C30.8438 2.25 33.8021 2.70833 36.4062 3.625C39.0104 4.52083 41.4062 5.91667 43.5938 7.8125C46.1354 10.0208 48.0938 12.6562 49.4688 15.7188C50.8438 18.7604 51.5312 21.9896 51.5312 25.4062C51.5312 32.1979 49.2292 37.8542 44.625 42.375C40.0208 46.8958 34.2604 49.1562 27.3438 49.1562C23.7396 49.1562 20.4792 48.5729 17.5625 47.4062C14.6458 46.2188 12.0625 44.4583 9.8125 42.125C7.72917 39.9375 6.13542 37.4479 5.03125 34.6562C3.94792 31.8438 3.40625 28.8646 3.40625 25.7188C3.40625 22.2396 4.08333 19.0104 5.4375 16.0312C6.8125 13.0312 8.80208 10.4167 11.4062 8.1875C13.5729 6.3125 16.0729 4.85417 18.9062 3.8125C21.7396 2.77083 24.6146 2.25 27.5312 2.25ZM52.8438 3.40625C53.5521 3.42708 54.5417 3.46875 55.8125 3.53125C59.0833 3.69792 61.2708 3.78125 62.375 3.78125C63.8333 3.78125 66.5208 3.6875 70.4375 3.5C71.4375 3.45833 72.2083 3.42708 72.75 3.40625V6.125C70.7917 6.16667 69.5104 6.375 68.9062 6.75C68.3229 7.125 68.0312 7.84375 68.0312 8.90625C68.0312 9.30208 68.1042 9.80208 68.25 10.4062C68.3958 11.0104 68.6771 11.9375 69.0938 13.1875L78.1562 38.625L78.3438 38.125C85.5312 20.2083 89.125 10.4062 89.125 8.71875C89.125 7.73958 88.8229 7.0625 88.2188 6.6875C87.6146 6.3125 86.3854 6.10417 84.5312 6.0625V3.40625C84.8646 3.42708 85.3542 3.44792 86 3.46875C89.1875 3.67708 91.4271 3.78125 92.7188 3.78125C93.7604 3.78125 95.7812 3.6875 98.7812 3.5C99.6979 3.45833 100.406 3.42708 100.906 3.40625V6.21875C100.094 6.21875 99.375 6.28125 98.75 6.40625C98.1458 6.53125 97.6354 6.71875 97.2188 6.96875C96.4271 7.46875 95.0625 10.0417 93.125 14.6875C92.3125 16.625 91.6667 18.1458 91.1875 19.25C86.875 29.3333 83.8021 36.625 81.9688 41.125C80.1354 45.6042 79.2188 48.0625 79.2188 48.5H72.8125C72.8125 47.9792 71.6146 44.3542 69.2188 37.625C66.8438 30.8958 64.0312 23.4271 60.7812 15.2188C60.6146 14.7812 60.3646 14.1562 60.0312 13.3438C58.1146 8.46875 55.9792 6.03125 53.625 6.03125C53.5417 6.03125 53.4062 6.04167 53.2188 6.0625C53.0521 6.08333 52.9271 6.09375 52.8438 6.09375V3.40625ZM104.156 3.34375C107.698 3.48958 110.969 3.60417 113.969 3.6875C116.969 3.75 119.604 3.78125 121.875 3.78125C125.688 3.78125 128.906 3.75 131.531 3.6875C134.177 3.60417 136.635 3.48958 138.906 3.34375C138.948 5.15625 139.031 6.94792 139.156 8.71875C139.281 10.4688 139.458 12.2396 139.688 14.0312L136.875 14.4062C136.583 11.8021 135.719 10.0417 134.281 9.125C132.865 8.20833 130.01 7.75 125.719 7.75C124.948 7.75 123.917 7.77083 122.625 7.8125C121.354 7.83333 119.792 7.875 117.938 7.9375C117.896 10.6875 117.854 13.3229 117.812 15.8438C117.792 18.3646 117.76 20.7812 117.719 23.0938H118.625C119.833 23.0938 121.333 23.1042 123.125 23.125C124.938 23.1458 126.146 23.1562 126.75 23.1562C129.625 23.1562 131.51 22.875 132.406 22.3125C133.302 21.75 133.781 20.6771 133.844 19.0938L136.156 19.3125C136.156 20.3542 136.125 21.6667 136.062 23.25C136 24.8125 135.969 25.875 135.969 26.4375C135.969 27 135.979 27.7188 136 28.5938C136.042 29.4688 136.094 30.5208 136.156 31.75L133.531 31.9375V31.5625C133.531 29.7708 133.01 28.5625 131.969 27.9375C130.948 27.3125 128.521 27 124.688 27H120.031H117.656V30.5938C117.656 32.4479 117.667 34.3542 117.688 36.3125C117.708 38.25 117.74 40.5625 117.781 43.25C118.719 43.375 119.885 43.4792 121.281 43.5625C122.698 43.625 124.24 43.6562 125.906 43.6562C130.885 43.6562 134.198 43.1354 135.844 42.0938C137.51 41.0521 138.854 39.0521 139.875 36.0938L142.75 37C142.062 39 141.469 40.9062 140.969 42.7188C140.49 44.5312 140.083 46.2917 139.75 48C134.833 47.8333 130.917 47.7188 128 47.6562C125.083 47.5938 122.49 47.5625 120.219 47.5625C117.656 47.5625 113.562 47.6562 107.938 47.8438C106 47.9062 104.531 47.9583 103.531 48V45.25C103.656 45.2708 103.792 45.2917 103.938 45.3125C104.104 45.3125 104.344 45.3125 104.656 45.3125C106.406 45.3125 107.594 44.7812 108.219 43.7188C108.844 42.6354 109.156 39.8125 109.156 35.25V32.125V29.25L109.219 22.2812C109.219 21.9688 109.229 21.5 109.25 20.875C109.312 18.3125 109.344 16.5625 109.344 15.625C109.344 14.6875 109.333 13.7083 109.312 12.6875C109.292 11.6667 109.281 11.1042 109.281 11C109.281 9.1875 108.948 7.92708 108.281 7.21875C107.635 6.51042 106.5 6.15625 104.875 6.15625H104.156V3.34375ZM160.844 25.5312C161.948 25.5938 162.885 25.6458 163.656 25.6875C164.427 25.7083 165.073 25.7188 165.594 25.7188C166.24 25.7188 166.927 25.7083 167.656 25.6875C168.385 25.6458 169.146 25.5938 169.938 25.5312C171.75 24.3646 173.073 23.0417 173.906 21.5625C174.76 20.0625 175.188 18.3125 175.188 16.3125C175.188 13.7083 174.302 11.6042 172.531 10C170.781 8.375 168.448 7.5625 165.531 7.5625C164.635 7.5625 163.812 7.59375 163.062 7.65625C162.333 7.71875 161.615 7.8125 160.906 7.9375C160.885 10.2083 160.865 12.5833 160.844 15.0625C160.844 17.5417 160.844 21.0312 160.844 25.5312ZM146.844 45.25C147.01 45.2708 147.167 45.2917 147.312 45.3125C147.479 45.3125 147.729 45.3125 148.062 45.3125C149.771 45.3125 150.917 44.75 151.5 43.625C152.104 42.5 152.406 39.5208 152.406 34.6875V32.375V30.2188V29.0625L152.531 22.0625C152.552 20.5833 152.562 19.1146 152.562 17.6562C152.583 16.1979 152.594 14.4479 152.594 12.4062C152.594 9.78125 152.271 8.08333 151.625 7.3125C151 6.54167 149.812 6.15625 148.062 6.15625H147.406V3.40625C149.635 3.51042 151.479 3.59375 152.938 3.65625C154.396 3.69792 155.667 3.71875 156.75 3.71875C158.292 3.71875 160.208 3.66667 162.5 3.5625C164.792 3.45833 166.333 3.40625 167.125 3.40625C172.292 3.40625 176.365 4.47917 179.344 6.625C182.323 8.77083 183.812 11.6875 183.812 15.375C183.812 17.8333 183.062 20 181.562 21.875C180.083 23.75 177.854 25.3542 174.875 26.6875L181 35.3125C183.917 39.8542 186.042 42.7083 187.375 43.875C188.729 45.0417 190.167 45.625 191.688 45.625C191.771 45.625 191.885 45.6146 192.031 45.5938C192.198 45.5729 192.323 45.5625 192.406 45.5625V48.1875C191.135 48.2917 190.031 48.3646 189.094 48.4062C188.156 48.4688 187.333 48.5 186.625 48.5C184.083 48.5 182.094 48.2188 180.656 47.6562C179.219 47.0938 177.927 46.125 176.781 44.75C176.24 44.1042 174.906 42.0312 172.781 38.5312C170.656 35.0104 168.792 32 167.188 29.5C165.896 29.5417 164.75 29.5729 163.75 29.5938C162.75 29.6146 161.781 29.625 160.844 29.625V37.9375C160.844 41.125 161.156 43.1354 161.781 43.9688C162.406 44.7812 163.635 45.1875 165.469 45.1875H166.344V48C164.635 47.8958 162.927 47.8229 161.219 47.7812C159.51 47.7188 157.76 47.6875 155.969 47.6875C155.385 47.6875 154.521 47.7083 153.375 47.75C152.25 47.7708 150.073 47.8542 146.844 48V45.25ZM188.031 3.40625C188.74 3.42708 189.729 3.46875 191 3.53125C194.271 3.69792 196.458 3.78125 197.562 3.78125C199.021 3.78125 201.708 3.6875 205.625 3.5C206.625 3.45833 207.396 3.42708 207.938 3.40625V6.125C205.979 6.16667 204.698 6.375 204.094 6.75C203.51 7.125 203.219 7.84375 203.219 8.90625C203.219 9.30208 203.292 9.80208 203.438 10.4062C203.583 11.0104 203.865 11.9375 204.281 13.1875L213.344 38.625L213.531 38.125C220.719 20.2083 224.312 10.4062 224.312 8.71875C224.312 7.73958 224.01 7.0625 223.406 6.6875C222.802 6.3125 221.573 6.10417 219.719 6.0625V3.40625C220.052 3.42708 220.542 3.44792 221.188 3.46875C224.375 3.67708 226.615 3.78125 227.906 3.78125C228.948 3.78125 230.969 3.6875 233.969 3.5C234.885 3.45833 235.594 3.42708 236.094 3.40625V6.21875C235.281 6.21875 234.562 6.28125 233.938 6.40625C233.333 6.53125 232.823 6.71875 232.406 6.96875C231.615 7.46875 230.25 10.0417 228.312 14.6875C227.5 16.625 226.854 18.1458 226.375 19.25C222.062 29.3333 218.99 36.625 217.156 41.125C215.323 45.6042 214.406 48.0625 214.406 48.5H208C208 47.9792 206.802 44.3542 204.406 37.625C202.031 30.8958 199.219 23.4271 195.969 15.2188C195.802 14.7812 195.552 14.1562 195.219 13.3438C193.302 8.46875 191.167 6.03125 188.812 6.03125C188.729 6.03125 188.594 6.04167 188.406 6.0625C188.24 6.08333 188.115 6.09375 188.031 6.09375V3.40625ZM238.906 3.40625C240.948 3.53125 242.812 3.625 244.5 3.6875C246.208 3.75 247.729 3.78125 249.062 3.78125C250.375 3.78125 251.844 3.75 253.469 3.6875C255.115 3.625 256.938 3.53125 258.938 3.40625V6.21875H258.281C256.844 6.21875 255.812 6.36458 255.188 6.65625C254.583 6.94792 254.146 7.47917 253.875 8.25C253.646 8.89583 253.479 10.1667 253.375 12.0625C253.271 13.9583 253.219 17.3646 253.219 22.2812V35.125C253.219 38.0625 253.271 40.1042 253.375 41.25C253.5 42.375 253.708 43.1979 254 43.7188C254.292 44.2396 254.781 44.6146 255.469 44.8438C256.156 45.0729 257.177 45.1875 258.531 45.1875H259.312V48C257.021 47.875 255.01 47.7812 253.281 47.7188C251.552 47.6562 250.083 47.625 248.875 47.625C247.771 47.625 246.344 47.6562 244.594 47.7188C242.844 47.7812 240.812 47.875 238.5 48V45.1875H239.281C240.677 45.1875 241.719 45.0729 242.406 44.8438C243.094 44.6146 243.562 44.2396 243.812 43.7188C244.125 43.1354 244.344 42.1875 244.469 40.875C244.594 39.5417 244.656 37.1354 244.656 33.6562V28.9375V15.375C244.656 12.7917 244.594 10.9896 244.469 9.96875C244.365 8.92708 244.167 8.15625 243.875 7.65625C243.604 7.15625 243.125 6.79167 242.438 6.5625C241.771 6.33333 240.802 6.21875 239.531 6.21875H238.906V3.40625ZM263.844 3.34375C267.385 3.48958 270.656 3.60417 273.656 3.6875C276.656 3.75 279.292 3.78125 281.562 3.78125C285.375 3.78125 288.594 3.75 291.219 3.6875C293.865 3.60417 296.323 3.48958 298.594 3.34375C298.635 5.15625 298.719 6.94792 298.844 8.71875C298.969 10.4688 299.146 12.2396 299.375 14.0312L296.562 14.4062C296.271 11.8021 295.406 10.0417 293.969 9.125C292.552 8.20833 289.698 7.75 285.406 7.75C284.635 7.75 283.604 7.77083 282.312 7.8125C281.042 7.83333 279.479 7.875 277.625 7.9375C277.583 10.6875 277.542 13.3229 277.5 15.8438C277.479 18.3646 277.448 20.7812 277.406 23.0938H278.312C279.521 23.0938 281.021 23.1042 282.812 23.125C284.625 23.1458 285.833 23.1562 286.438 23.1562C289.312 23.1562 291.198 22.875 292.094 22.3125C292.99 21.75 293.469 20.6771 293.531 19.0938L295.844 19.3125C295.844 20.3542 295.812 21.6667 295.75 23.25C295.688 24.8125 295.656 25.875 295.656 26.4375C295.656 27 295.667 27.7188 295.688 28.5938C295.729 29.4688 295.781 30.5208 295.844 31.75L293.219 31.9375V31.5625C293.219 29.7708 292.698 28.5625 291.656 27.9375C290.635 27.3125 288.208 27 284.375 27H279.719H277.344V30.5938C277.344 32.4479 277.354 34.3542 277.375 36.3125C277.396 38.25 277.427 40.5625 277.469 43.25C278.406 43.375 279.573 43.4792 280.969 43.5625C282.385 43.625 283.927 43.6562 285.594 43.6562C290.573 43.6562 293.885 43.1354 295.531 42.0938C297.198 41.0521 298.542 39.0521 299.562 36.0938L302.438 37C301.75 39 301.156 40.9062 300.656 42.7188C300.177 44.5312 299.771 46.2917 299.438 48C294.521 47.8333 290.604 47.7188 287.688 47.6562C284.771 47.5938 282.177 47.5625 279.906 47.5625C277.344 47.5625 273.25 47.6562 267.625 47.8438C265.688 47.9062 264.219 47.9583 263.219 48V45.25C263.344 45.2708 263.479 45.2917 263.625 45.3125C263.792 45.3125 264.031 45.3125 264.344 45.3125C266.094 45.3125 267.281 44.7812 267.906 43.7188C268.531 42.6354 268.844 39.8125 268.844 35.25V32.125V29.25L268.906 22.2812C268.906 21.9688 268.917 21.5 268.938 20.875C269 18.3125 269.031 16.5625 269.031 15.625C269.031 14.6875 269.021 13.7083 269 12.6875C268.979 11.6667 268.969 11.1042 268.969 11C268.969 9.1875 268.635 7.92708 267.969 7.21875C267.323 6.51042 266.188 6.15625 264.562 6.15625H263.844V3.34375ZM328.469 37.9375L337.125 16L335.312 10.375C334.771 8.64583 334.208 7.51042 333.625 6.96875C333.042 6.42708 332.177 6.15625 331.031 6.15625C330.885 6.15625 330.677 6.16667 330.406 6.1875C330.135 6.20833 329.938 6.21875 329.812 6.21875V3.40625C330.167 3.40625 330.698 3.42708 331.406 3.46875C335.115 3.67708 337.677 3.78125 339.094 3.78125C340.052 3.78125 341.26 3.75 342.719 3.6875C344.198 3.625 345.958 3.53125 348 3.40625V6.21875C347.833 6.21875 347.615 6.20833 347.344 6.1875C347.094 6.16667 346.906 6.15625 346.781 6.15625C345.573 6.15625 344.719 6.34375 344.219 6.71875C343.74 7.09375 343.5 7.76042 343.5 8.71875C343.5 9.17708 343.615 9.84375 343.844 10.7188C344.073 11.5938 344.427 12.7812 344.906 14.2812L352.469 37.875L354.188 32.9375C359.271 18.3958 361.812 10.3438 361.812 8.78125C361.812 7.84375 361.542 7.1875 361 6.8125C360.479 6.41667 359.531 6.21875 358.156 6.21875H357.281V3.40625C357.74 3.42708 358.375 3.45833 359.188 3.5C362.104 3.6875 364.094 3.78125 365.156 3.78125C366.156 3.78125 368.104 3.6875 371 3.5C371.833 3.45833 372.479 3.42708 372.938 3.40625V6.21875C372.854 6.19792 372.74 6.1875 372.594 6.1875C372.448 6.16667 372.25 6.15625 372 6.15625C369.771 6.15625 367.438 9.65625 365 16.6562C364.062 19.3229 363.302 21.4479 362.719 23.0312L360.031 30.0938C359.719 30.8646 359.271 32.0104 358.688 33.5312C356 40.5312 354.25 45.5 353.438 48.4375H347.531C347.323 47.5208 347.083 46.5938 346.812 45.6562C346.562 44.7188 346.229 43.6458 345.812 42.4375L339.219 22.5938L331.531 41.9688C330.906 43.5312 330.438 44.7812 330.125 45.7188C329.833 46.6562 329.583 47.5625 329.375 48.4375H323.469C323.219 47.0417 321.573 42.1354 318.531 33.7188L317.469 30.7812L314.312 22.0938C313.833 20.6979 313.198 18.8229 312.406 16.4688C310.073 9.55208 307.854 6.09375 305.75 6.09375C305.562 6.09375 305.271 6.125 304.875 6.1875C304.812 6.1875 304.76 6.19792 304.719 6.21875V3.40625C306.823 3.53125 308.615 3.625 310.094 3.6875C311.573 3.75 312.771 3.78125 313.688 3.78125C314.75 3.78125 316.833 3.69792 319.938 3.53125C321.083 3.46875 321.969 3.42708 322.594 3.40625V6.21875H321.875C320.812 6.21875 320.021 6.41667 319.5 6.8125C319 7.1875 318.75 7.77083 318.75 8.5625C318.75 9.27083 319.177 10.8333 320.031 13.25L320.094 13.4375L328.469 37.9375Z" fill="white"/>
<path d="M342.972 45.088C345.836 45.008 350.284 44.848 354.316 44.672L354.252 46.432C350.332 46.656 346.108 46.848 343.228 46.96L342.972 45.088ZM342.892 40.32H356.204V42.112H342.892V40.32ZM345.74 37.248H353.244V39.008H345.74V37.248ZM346.812 41.488L349.004 42.096C348.252 43.6 347.388 45.264 346.668 46.336L344.988 45.776C345.644 44.608 346.412 42.832 346.812 41.488ZM350.78 43.136L352.476 42.256C353.916 43.488 355.404 45.168 356.14 46.384L354.364 47.456C353.692 46.24 352.156 44.416 350.78 43.136ZM349.484 34.288C348.188 36.112 345.692 38.16 343.036 39.424C342.812 38.96 342.3 38.24 341.9 37.824C344.636 36.624 347.196 34.336 348.38 32.448H350.412C352.108 34.8 354.652 36.624 357.196 37.536C356.732 38.016 356.3 38.704 355.948 39.28C353.548 38.16 350.844 36.144 349.484 34.288ZM364.044 45.104H373.164V46.992H364.044V45.104ZM364.7 37.376H372.78V39.216H364.7V37.376ZM367.756 32.576H369.724V46.016H367.756V32.576ZM358.3 35.376H363.548V37.12H358.3V35.376ZM360.588 40.848L362.492 38.576V47.456H360.588V40.848ZM360.588 32.432H362.492V36.192H360.588V32.432ZM362.3 39.12C362.86 39.504 364.668 41.104 365.1 41.504L363.932 43.056C363.308 42.224 361.964 40.752 361.244 40.048L362.3 39.12ZM362.844 35.376H363.228L363.564 35.312L364.636 36.016C363.42 39.136 361.004 41.936 358.62 43.44C358.444 42.928 357.996 41.984 357.708 41.616C359.884 40.432 361.996 38.08 362.844 35.728V35.376ZM383.596 33.168H388.764V34.784H383.596V33.168ZM383.484 38.896H389.004V40.544H383.484V38.896ZM384.108 33.6H385.564V39.696H384.108V33.6ZM379.724 36.016H382.508V37.472H379.724V36.016ZM381.324 41.488L382.796 40.992C383.356 42.208 383.948 43.76 384.156 44.752L382.572 45.344C382.38 44.352 381.852 42.72 381.324 41.488ZM379.676 33.2H383.244V40.368H379.676V38.832H381.708V34.72H379.676V33.2ZM378.076 44.224C379.26 43.92 381.052 43.376 382.796 42.832L383.068 44.352C381.612 44.928 380.076 45.504 378.812 45.984L378.076 44.224ZM379.068 33.2H380.62V44.384L379.068 44.704V33.2ZM374.108 35.648H378.748V37.392H374.108V35.648ZM375.804 32.416H377.564V47.44H375.804V32.416ZM375.804 36.864L376.924 37.216C376.524 39.712 375.676 42.944 374.62 44.672C374.444 44.16 374.028 43.44 373.756 43.008C374.668 41.504 375.484 38.88 375.804 36.864ZM377.532 38.368C377.836 38.672 378.988 40.064 379.228 40.368L378.284 42.016C377.948 41.264 377.116 39.888 376.732 39.264L377.532 38.368ZM386.332 34.112H387.884V36C387.884 39.152 387.468 44.096 382.716 47.44C382.46 47.104 381.884 46.528 381.5 46.256C385.996 43.232 386.332 38.8 386.332 35.984V34.112ZM385.788 40.784H387.308V45.376C387.308 45.472 387.308 45.568 387.34 45.616C387.372 45.68 387.452 45.696 387.532 45.696C387.596 45.696 387.66 45.696 387.74 45.696C387.836 45.696 387.9 45.68 387.948 45.616C387.996 45.568 388.028 45.424 388.06 45.264C388.092 44.992 388.108 44.368 388.108 43.632C388.364 43.872 388.892 44.144 389.276 44.288C389.26 45.088 389.18 45.936 389.1 46.288C389.004 46.656 388.86 46.88 388.62 47.04C388.428 47.2 388.124 47.28 387.836 47.28C387.596 47.28 387.276 47.28 387.084 47.28C386.7 47.28 386.332 47.184 386.092 46.928C385.852 46.656 385.788 46.384 385.788 45.488V40.784ZM390.156 41.088H404.844V42.64H390.156V41.088ZM390.46 32.976H404.46V34.64H390.46V32.976ZM395.484 39.552L397.372 40.032C396.348 41.728 394.988 43.744 394.012 45.024L392.156 44.464C393.148 43.184 394.556 41.12 395.484 39.552ZM400.124 41.664L401.98 42.144C400.396 45.92 397.1 47.008 391.164 47.472C391.036 46.912 390.748 46.24 390.444 45.824C395.836 45.6 398.844 44.736 400.124 41.664ZM393.26 44.592L394.236 43.216C397.916 43.968 401.9 45.072 404.3 45.952L403.148 47.504C400.828 46.56 397.084 45.408 393.26 44.592ZM394.668 33.632H396.476V39.104H394.668V33.632ZM398.3 33.632H400.108V39.104H398.3V33.632ZM392.988 37.056V38.56H402.028V37.056H392.988ZM391.196 35.552H403.948V40.064H391.196V35.552Z" fill="#808080"/>
</svg>
