<svg width="501" height="53" viewBox="0 0 501 53" fill="none" xmlns="http://www.w3.org/2000/svg">
<path d="M132.801 22.9102C133.223 22.9336 133.68 22.957 134.172 22.9805C134.664 22.9805 135.402 22.9805 136.387 22.9805C137.723 22.9805 138.965 22.957 140.113 22.9102C141.262 22.8633 142.328 22.793 143.312 22.6992C144.906 21.5742 146.102 20.3086 146.898 18.9023C147.719 17.4727 148.129 15.9375 148.129 14.2969C148.129 11.5312 147.25 9.36328 145.492 7.79297C143.734 6.22266 141.309 5.4375 138.215 5.4375C137.395 5.4375 136.539 5.48437 135.648 5.57812C134.758 5.64844 133.855 5.76562 132.941 5.92969C132.918 7.99219 132.895 10.9687 132.871 14.8594C132.848 18.7266 132.824 21.4102 132.801 22.9102ZM132.801 45.4453C134.207 45.8203 135.473 46.1016 136.598 46.2891C137.723 46.4531 138.789 46.5352 139.797 46.5352C143.266 46.5352 145.984 45.668 147.953 43.9336C149.945 42.1992 150.941 39.832 150.941 36.832C150.941 33.5977 149.84 31.1602 147.637 29.5195C145.434 27.8555 142.164 27.0234 137.828 27.0234C136.727 27.0234 135.789 27.0352 135.016 27.0586C134.242 27.082 133.48 27.1172 132.73 27.1641V33.3516C132.73 37.0781 132.73 39.7383 132.73 41.332C132.754 42.9023 132.777 44.2734 132.801 45.4453ZM117.191 47.9062C117.332 47.9297 117.484 47.9531 117.648 47.9766C117.836 47.9766 118.082 47.9766 118.387 47.9766C121.621 47.9766 123.25 43.957 123.273 35.918C123.273 33.5977 123.285 31.7578 123.309 30.3984V11.4844C123.309 8.03906 122.957 5.92969 122.254 5.15625C121.574 4.38281 120.262 3.99609 118.316 3.99609H117.824V0.726562C119.676 0.890625 121.41 1.00781 123.027 1.07812C124.645 1.14844 126.18 1.18359 127.633 1.18359C129.766 1.18359 132.098 1.125 134.629 1.00781C137.184 0.890625 138.66 0.832031 139.059 0.832031C139.082 0.832031 139.129 0.820313 139.199 0.796875C139.527 0.773437 139.844 0.75 140.148 0.726562C145.633 0.726562 149.922 1.81641 153.016 3.99609C156.109 6.15234 157.656 9.10547 157.656 12.8555C157.656 15.3164 156.848 17.5078 155.23 19.4297C153.613 21.3281 151.129 23.0156 147.777 24.4922C152.066 25.1719 155.336 26.543 157.586 28.6055C159.836 30.668 160.961 33.3281 160.961 36.5859C160.961 40.8984 159.062 44.4023 155.266 47.0977C151.492 49.793 146.477 51.1406 140.219 51.1406C139.258 51.1406 137.148 51.0703 133.891 50.9297C130.656 50.7891 127.891 50.7188 125.594 50.7188C124.961 50.7188 123.941 50.7539 122.535 50.8242C121.129 50.8945 119.348 51 117.191 51.1406V47.9062ZM187.715 0.832031V3.99609C187.574 3.99609 187.375 3.98438 187.117 3.96094C186.859 3.9375 186.672 3.92578 186.555 3.92578C184.562 3.92578 183.215 4.51172 182.512 5.68359C181.809 6.83203 181.457 9.77344 181.457 14.5078V17.3203V22.5586C181.457 27.293 181.539 30.6562 181.703 32.6484C181.867 34.6172 182.148 36.1758 182.547 37.3242C183.438 40.1133 185.008 42.2578 187.258 43.7578C189.508 45.2344 192.273 45.9727 195.555 45.9727C198.25 45.9727 200.547 45.5273 202.445 44.6367C204.344 43.7227 205.891 42.3398 207.086 40.4883C207.883 39.2461 208.445 37.6289 208.773 35.6367C209.125 33.6211 209.301 30.6328 209.301 26.6719C209.301 25.9219 209.289 24.6797 209.266 22.9453C209.242 21.1875 209.23 19.8164 209.23 18.832V15.1406C209.23 10.1953 208.879 7.08984 208.176 5.82422C207.473 4.55859 206.125 3.92578 204.133 3.92578C203.828 3.92578 203.594 3.9375 203.43 3.96094C203.266 3.96094 203.113 3.96094 202.973 3.96094V0.832031C205.152 0.949219 206.957 1.04297 208.387 1.11328C209.84 1.16016 211.082 1.18359 212.113 1.18359C213.074 1.18359 214.234 1.16016 215.594 1.11328C216.977 1.04297 218.77 0.949219 220.973 0.832031V3.99609H220.41C219.004 3.99609 217.961 4.16016 217.281 4.48828C216.602 4.79297 216.109 5.34375 215.805 6.14062C215.359 7.3125 215.078 12.4102 214.961 21.4336C214.961 22.7227 214.949 23.7188 214.926 24.4219C214.926 24.8672 214.926 25.5117 214.926 26.3555C214.879 34.3711 214.012 39.8789 212.324 42.8789C210.637 45.8789 208.152 48.1992 204.871 49.8398C201.59 51.4805 197.77 52.3008 193.41 52.3008C189.402 52.3008 185.84 51.6445 182.723 50.332C179.629 48.9961 177.191 47.1094 175.41 44.6719C174.074 42.8438 173.125 40.7344 172.562 38.3438C172 35.9531 171.719 32.3906 171.719 27.6562C171.719 26.3906 171.754 24.1406 171.824 20.9062C171.895 17.6719 171.93 15.082 171.93 13.1367C171.93 9.03516 171.59 6.49219 170.91 5.50781C170.254 4.5 168.941 3.99609 166.973 3.99609H166.129V0.832031C168.777 0.949219 170.922 1.04297 172.562 1.11328C174.227 1.16016 175.656 1.18359 176.852 1.18359C177.953 1.18359 179.336 1.16016 181 1.11328C182.664 1.04297 184.902 0.949219 187.715 0.832031ZM260.102 2.34375V3.11719C260.102 4.82813 260.195 6.58594 260.383 8.39062C260.594 10.1719 260.898 12.0117 261.297 13.9102L257.641 14.5078C257.242 11.4609 256.105 9.16406 254.23 7.61719C252.379 6.07031 249.824 5.29688 246.566 5.29688C243.543 5.29688 241.176 5.89453 239.465 7.08984C237.754 8.28516 236.898 9.9375 236.898 12.0469C236.898 13.4531 237.25 14.6719 237.953 15.7031C238.656 16.7109 239.746 17.6016 241.223 18.375C242.371 18.9844 244.352 19.7578 247.164 20.6953C250 21.6328 252.098 22.3711 253.457 22.9102C256.527 24.1758 258.824 25.8281 260.348 27.8672C261.895 29.9062 262.668 32.332 262.668 35.1445C262.668 40.2539 260.711 44.332 256.797 47.3789C252.883 50.4258 247.574 51.9492 240.871 51.9492C238.668 51.9492 236.441 51.7266 234.191 51.2812C231.941 50.8594 229.75 50.2383 227.617 49.418C227.617 49.1602 227.629 48.8203 227.652 48.3984C227.676 47.9531 227.688 47.625 227.688 47.4141C227.688 45.6094 227.57 43.7695 227.336 41.8945C227.125 40.0195 226.785 38.0859 226.316 36.0938L230.148 35.1445C231.039 39.457 232.469 42.4688 234.438 44.1797C236.43 45.8906 239.383 46.7461 243.297 46.7461C246.461 46.7461 248.957 46.043 250.785 44.6367C252.613 43.2305 253.527 41.3438 253.527 38.9766C253.527 35.6016 250.305 32.7773 243.859 30.5039C242.43 30.0117 241.34 29.625 240.59 29.3438C236.137 27.6797 232.938 25.7461 230.992 23.543C229.07 21.3398 228.109 18.5859 228.109 15.2812C228.109 10.7344 229.867 7.06641 233.383 4.27734C236.898 1.48828 241.551 0.09375 247.34 0.09375C249.355 0.09375 251.395 0.28125 253.457 0.65625C255.543 1.00781 257.758 1.57031 260.102 2.34375ZM269.066 0.832031C271.363 0.972656 273.461 1.07812 275.359 1.14844C277.281 1.21875 278.992 1.25391 280.492 1.25391C281.969 1.25391 283.621 1.21875 285.449 1.14844C287.301 1.07812 289.352 0.972656 291.602 0.832031V3.99609H290.863C289.246 3.99609 288.086 4.16016 287.383 4.48828C286.703 4.81641 286.211 5.41406 285.906 6.28125C285.648 7.00781 285.461 8.4375 285.344 10.5703C285.227 12.7031 285.168 16.5352 285.168 22.0664V36.5156C285.168 39.8203 285.227 42.1172 285.344 43.4062C285.484 44.6719 285.719 45.5977 286.047 46.1836C286.375 46.7695 286.926 47.1914 287.699 47.4492C288.473 47.707 289.621 47.8359 291.145 47.8359H292.023V51C289.445 50.8594 287.184 50.7539 285.238 50.6836C283.293 50.6133 281.641 50.5781 280.281 50.5781C279.039 50.5781 277.434 50.6133 275.465 50.6836C273.496 50.7539 271.211 50.8594 268.609 51V47.8359H269.488C271.059 47.8359 272.23 47.707 273.004 47.4492C273.777 47.1914 274.305 46.7695 274.586 46.1836C274.938 45.5273 275.184 44.4609 275.324 42.9844C275.465 41.4844 275.535 38.7773 275.535 34.8633V29.5547V14.2969C275.535 11.3906 275.465 9.36328 275.324 8.21484C275.207 7.04297 274.984 6.17578 274.656 5.61328C274.352 5.05078 273.812 4.64062 273.039 4.38281C272.289 4.125 271.199 3.99609 269.77 3.99609H269.066V0.832031ZM295.75 0.902344C296.641 0.925781 298.035 0.996094 299.934 1.11328C301.855 1.20703 303.227 1.25391 304.047 1.25391C304.773 1.25391 306.039 1.20703 307.844 1.11328C309.672 0.996094 311.02 0.925781 311.887 0.902344C312.215 1.76953 312.695 2.69531 313.328 3.67969C313.961 4.64062 314.793 5.73047 315.824 6.94922L341.664 37.4297C341.641 34.3828 341.605 30.3164 341.559 25.2305C341.465 14.0508 341.289 7.94531 341.031 6.91406C340.703 5.78906 340.188 5.02734 339.484 4.62891C338.781 4.20703 337.621 3.99609 336.004 3.99609H334.844V0.902344C337.398 1.01953 339.344 1.11328 340.68 1.18359C342.016 1.23047 343.117 1.25391 343.984 1.25391C345.016 1.25391 346.258 1.23047 347.711 1.18359C349.164 1.11328 350.992 1.01953 353.195 0.902344V3.99609H352.562C351.062 3.99609 349.961 4.17188 349.258 4.52344C348.555 4.85156 348.051 5.4375 347.746 6.28125C347.371 7.40625 347.102 12.6914 346.938 22.1367V22.6992L346.797 30.3281C346.75 33.2578 346.715 36.0117 346.691 38.5898C346.668 41.1445 346.656 43.2891 346.656 45.0234C346.656 46.1719 346.691 47.2852 346.762 48.3633C346.855 49.4414 346.984 50.4844 347.148 51.4922H340.258C339.977 50.9062 339.566 50.2383 339.027 49.4883C338.488 48.7383 337.457 47.4609 335.934 45.6562L307.562 12.4688C307.562 23.5547 307.621 31.5117 307.738 36.3398C307.855 41.1445 308.031 43.9805 308.266 44.8477C308.594 45.9727 309.109 46.7578 309.812 47.2031C310.539 47.625 311.711 47.8359 313.328 47.8359H314.418V51C311.746 50.8594 309.719 50.7656 308.336 50.7188C306.977 50.6719 305.852 50.6484 304.961 50.6484C304.211 50.6484 303.18 50.6719 301.867 50.7188C300.578 50.7656 298.516 50.8594 295.68 51V47.8359C295.867 47.8594 296.055 47.8828 296.242 47.9062C296.453 47.9062 296.746 47.9062 297.121 47.9062C300.473 47.9062 302.184 43.3008 302.254 34.0898C302.277 32.0508 302.289 30.4688 302.289 29.3438L302.395 21.8555C302.395 20.332 302.418 18.1523 302.465 15.3164C302.512 12.457 302.535 10.6289 302.535 9.83203C302.535 7.55859 302.137 6.01172 301.34 5.19141C300.543 4.34766 299.113 3.92578 297.051 3.92578C296.91 3.92578 296.688 3.9375 296.383 3.96094C296.102 3.98438 295.891 3.99609 295.75 3.99609V0.902344ZM357.801 0.761719C361.785 0.925781 365.465 1.05469 368.84 1.14844C372.215 1.21875 375.18 1.25391 377.734 1.25391C382.023 1.25391 385.645 1.21875 388.598 1.14844C391.574 1.05469 394.34 0.925781 396.895 0.761719C396.941 2.80078 397.035 4.81641 397.176 6.80859C397.316 8.77734 397.516 10.7695 397.773 12.7852L394.609 13.207C394.281 10.2773 393.309 8.29687 391.691 7.26562C390.098 6.23438 386.887 5.71875 382.059 5.71875C381.191 5.71875 380.031 5.74219 378.578 5.78906C377.148 5.8125 375.391 5.85938 373.305 5.92969C373.258 9.02344 373.211 11.9883 373.164 14.8242C373.141 17.6602 373.105 20.3789 373.059 22.9805H374.078C375.438 22.9805 377.125 22.9922 379.141 23.0156C381.18 23.0391 382.539 23.0508 383.219 23.0508C386.453 23.0508 388.574 22.7344 389.582 22.1016C390.59 21.4688 391.129 20.2617 391.199 18.4805L393.801 18.7266C393.801 19.8984 393.766 21.375 393.695 23.1562C393.625 24.9141 393.59 26.1094 393.59 26.7422C393.59 27.375 393.602 28.1836 393.625 29.168C393.672 30.1523 393.73 31.3359 393.801 32.7188L390.848 32.9297V32.5078C390.848 30.4922 390.262 29.1328 389.09 28.4297C387.941 27.7266 385.211 27.375 380.898 27.375H375.66H372.988V31.418C372.988 33.5039 373 35.6484 373.023 37.8516C373.047 40.0312 373.082 42.6328 373.129 45.6562C374.184 45.7969 375.496 45.9141 377.066 46.0078C378.66 46.0781 380.395 46.1133 382.27 46.1133C387.871 46.1133 391.598 45.5273 393.449 44.3555C395.324 43.1836 396.836 40.9336 397.984 37.6055L401.219 38.625C400.445 40.875 399.777 43.0195 399.215 45.0586C398.676 47.0977 398.219 49.0781 397.844 51C392.312 50.8125 387.906 50.6836 384.625 50.6133C381.344 50.543 378.426 50.5078 375.871 50.5078C372.988 50.5078 368.383 50.6133 362.055 50.8242C359.875 50.8945 358.223 50.9531 357.098 51V47.9062C357.238 47.9297 357.391 47.9531 357.555 47.9766C357.742 47.9766 358.012 47.9766 358.363 47.9766C360.332 47.9766 361.668 47.3789 362.371 46.1836C363.074 44.9648 363.426 41.7891 363.426 36.6562V33.1406V29.9062L363.496 22.0664C363.496 21.7148 363.508 21.1875 363.531 20.4844C363.602 17.6016 363.637 15.6328 363.637 14.5781C363.637 13.5234 363.625 12.4219 363.602 11.2734C363.578 10.125 363.566 9.49219 363.566 9.375C363.566 7.33594 363.191 5.91797 362.441 5.12109C361.715 4.32422 360.438 3.92578 358.609 3.92578H357.801V0.761719ZM440.383 2.34375V3.11719C440.383 4.82813 440.477 6.58594 440.664 8.39062C440.875 10.1719 441.18 12.0117 441.578 13.9102L437.922 14.5078C437.523 11.4609 436.387 9.16406 434.512 7.61719C432.66 6.07031 430.105 5.29688 426.848 5.29688C423.824 5.29688 421.457 5.89453 419.746 7.08984C418.035 8.28516 417.18 9.9375 417.18 12.0469C417.18 13.4531 417.531 14.6719 418.234 15.7031C418.938 16.7109 420.027 17.6016 421.504 18.375C422.652 18.9844 424.633 19.7578 427.445 20.6953C430.281 21.6328 432.379 22.3711 433.738 22.9102C436.809 24.1758 439.105 25.8281 440.629 27.8672C442.176 29.9062 442.949 32.332 442.949 35.1445C442.949 40.2539 440.992 44.332 437.078 47.3789C433.164 50.4258 427.855 51.9492 421.152 51.9492C418.949 51.9492 416.723 51.7266 414.473 51.2812C412.223 50.8594 410.031 50.2383 407.898 49.418C407.898 49.1602 407.91 48.8203 407.934 48.3984C407.957 47.9531 407.969 47.625 407.969 47.4141C407.969 45.6094 407.852 43.7695 407.617 41.8945C407.406 40.0195 407.066 38.0859 406.598 36.0938L410.43 35.1445C411.32 39.457 412.75 42.4688 414.719 44.1797C416.711 45.8906 419.664 46.7461 423.578 46.7461C426.742 46.7461 429.238 46.043 431.066 44.6367C432.895 43.2305 433.809 41.3438 433.809 38.9766C433.809 35.6016 430.586 32.7773 424.141 30.5039C422.711 30.0117 421.621 29.625 420.871 29.3438C416.418 27.6797 413.219 25.7461 411.273 23.543C409.352 21.3398 408.391 18.5859 408.391 15.2812C408.391 10.7344 410.148 7.06641 413.664 4.27734C417.18 1.48828 421.832 0.09375 427.621 0.09375C429.637 0.09375 431.676 0.28125 433.738 0.65625C435.824 1.00781 438.039 1.57031 440.383 2.34375ZM483.836 2.34375V3.11719C483.836 4.82813 483.93 6.58594 484.117 8.39062C484.328 10.1719 484.633 12.0117 485.031 13.9102L481.375 14.5078C480.977 11.4609 479.84 9.16406 477.965 7.61719C476.113 6.07031 473.559 5.29688 470.301 5.29688C467.277 5.29688 464.91 5.89453 463.199 7.08984C461.488 8.28516 460.633 9.9375 460.633 12.0469C460.633 13.4531 460.984 14.6719 461.688 15.7031C462.391 16.7109 463.48 17.6016 464.957 18.375C466.105 18.9844 468.086 19.7578 470.898 20.6953C473.734 21.6328 475.832 22.3711 477.191 22.9102C480.262 24.1758 482.559 25.8281 484.082 27.8672C485.629 29.9062 486.402 32.332 486.402 35.1445C486.402 40.2539 484.445 44.332 480.531 47.3789C476.617 50.4258 471.309 51.9492 464.605 51.9492C462.402 51.9492 460.176 51.7266 457.926 51.2812C455.676 50.8594 453.484 50.2383 451.352 49.418C451.352 49.1602 451.363 48.8203 451.387 48.3984C451.41 47.9531 451.422 47.625 451.422 47.4141C451.422 45.6094 451.305 43.7695 451.07 41.8945C450.859 40.0195 450.52 38.0859 450.051 36.0938L453.883 35.1445C454.773 39.457 456.203 42.4688 458.172 44.1797C460.164 45.8906 463.117 46.7461 467.031 46.7461C470.195 46.7461 472.691 46.043 474.52 44.6367C476.348 43.2305 477.262 41.3438 477.262 38.9766C477.262 35.6016 474.039 32.7773 467.594 30.5039C466.164 30.0117 465.074 29.625 464.324 29.3438C459.871 27.6797 456.672 25.7461 454.727 23.543C452.805 21.3398 451.844 18.5859 451.844 15.2812C451.844 10.7344 453.602 7.06641 457.117 4.27734C460.633 1.48828 465.285 0.09375 471.074 0.09375C473.09 0.09375 475.129 0.28125 477.191 0.65625C479.277 1.00781 481.492 1.57031 483.836 2.34375Z" fill="#808080"/>
<path d="M28.94 28.624H31.868V48.424C31.868 49.84 31.508 50.416 30.596 50.824C29.66 51.184 28.364 51.232 26.324 51.232C26.18 50.56 25.724 49.552 25.364 48.976C26.516 49.024 27.932 49 28.34 49C28.796 48.976 28.94 48.832 28.94 48.424V28.624ZM19.94 30.184H41.06V32.464H19.94V30.184ZM25.148 35.248V36.4H35.756V35.248H25.148ZM22.412 33.424H38.708V38.224H22.412V33.424ZM21.812 39.28H39.116V48.664H36.188V41.248H21.812V39.28ZM19.388 42.256H41.612V44.44H19.388V42.256ZM21.62 45.568H37.748V47.656H21.62V45.568ZM43.844 43.312H65.252V45.664H43.844V43.312ZM43.892 32.536H65.156V34.912H43.892V32.536ZM44.876 36.832H64.244V39.088H44.876V36.832ZM46.076 40.144H63.116V42.232H46.076V40.144ZM53.036 37.984H55.892V51.16H53.036V37.984ZM50.948 28.6H53.636V33.664H50.948V28.6ZM55.388 28.6H58.124V33.496H55.388V28.6ZM52.508 44.368L54.764 45.376C52.484 47.872 48.644 49.912 44.948 50.872C44.564 50.176 43.724 49.072 43.1 48.472C46.724 47.776 50.54 46.192 52.508 44.368ZM56.468 44.296C58.412 46.192 62.156 47.68 65.9 48.304C65.252 48.904 64.388 50.104 63.956 50.896C60.164 49.936 56.492 47.896 54.236 45.184L56.468 44.296ZM60.908 28.792L63.932 29.512C63.164 30.832 62.348 32.128 61.724 33.016L59.396 32.296C59.948 31.312 60.572 29.848 60.908 28.792ZM57.74 33.952L60.788 34.648C60.14 35.8 59.516 36.856 59.012 37.624L56.564 36.928C56.996 36.064 57.5 34.84 57.74 33.952ZM45.62 29.56L48.092 28.72C48.788 29.752 49.58 31.192 49.916 32.128L47.3 33.064C47.036 32.128 46.268 30.664 45.62 29.56ZM48.668 34.936L51.452 34.504C51.86 35.176 52.316 36.112 52.508 36.76L49.58 37.264C49.436 36.64 49.028 35.632 48.668 34.936ZM76.964 39.304L79.148 37.72C81.284 39.64 84.188 42.376 85.604 44.176L83.204 46.024C81.932 44.224 79.124 41.344 76.964 39.304ZM77.036 28.624H79.988V34.384C79.988 38.368 78.98 43.288 73.508 46.552C73.1 45.928 72.116 44.872 71.444 44.368C76.628 41.704 77.036 37.504 77.036 34.36V28.624ZM68.612 32.608H86.852V35.44H71.492V51.208H68.612V32.608ZM85.58 32.608H88.436V47.872C88.436 49.432 88.1 50.224 87.116 50.704C86.108 51.16 84.572 51.184 82.436 51.184C82.34 50.392 81.884 49.072 81.5 48.328C82.916 48.4 84.524 48.4 84.98 48.4C85.436 48.376 85.58 48.232 85.58 47.824V32.608ZM98.108 33.64L100.892 34.552C99.404 36.736 96.98 38.8 94.748 40.048C94.34 39.472 93.332 38.296 92.756 37.768C94.844 36.808 96.932 35.272 98.108 33.64ZM103.964 35.248L105.98 33.592C107.996 34.768 110.708 36.616 112.028 37.96L109.844 39.856C108.644 38.536 106.028 36.568 103.964 35.248ZM102.596 39.256C100.676 41.728 96.932 44.512 93.092 46.192C92.756 45.496 92.036 44.392 91.484 43.768C95.42 42.208 99.188 39.208 100.988 36.64H103.94C106.484 39.76 110.204 42.16 113.876 43.36C113.204 44.104 112.556 45.16 112.076 46C108.668 44.512 104.636 41.776 102.596 39.256ZM95.756 42.88H109.388V51.136H106.46V45.4H98.54V51.16H95.756V42.88ZM97.052 47.968H107.924V50.488H97.052V47.968ZM100.94 28.624H103.916V32.032H100.94V28.624ZM92.204 30.544H112.796V35.728H109.844V33.136H95.012V35.728H92.204V30.544Z" fill="#808080"/>
</svg>
