<svg width="487" height="54" viewBox="0 0 487 54" fill="none" xmlns="http://www.w3.org/2000/svg">
<path d="M133.531 26.7227C134.773 26.793 135.828 26.8516 136.695 26.8984C137.562 26.9219 138.289 26.9336 138.875 26.9336C139.602 26.9336 140.375 26.9219 141.195 26.8984C142.016 26.8516 142.871 26.793 143.762 26.7227C145.801 25.4102 147.289 23.9219 148.227 22.2578C149.188 20.5703 149.668 18.6016 149.668 16.3516C149.668 13.4219 148.672 11.0547 146.68 9.25C144.711 7.42188 142.086 6.50781 138.805 6.50781C137.797 6.50781 136.871 6.54297 136.027 6.61328C135.207 6.68359 134.398 6.78906 133.602 6.92969C133.578 9.48438 133.555 12.1563 133.531 14.9453C133.531 17.7344 133.531 21.6602 133.531 26.7227ZM117.781 48.9062C117.969 48.9297 118.145 48.9531 118.309 48.9766C118.496 48.9766 118.777 48.9766 119.152 48.9766C121.074 48.9766 122.363 48.3438 123.02 47.0781C123.699 45.8125 124.039 42.4609 124.039 37.0234V34.4219V31.9961V30.6953L124.18 22.8203C124.203 21.1562 124.215 19.5039 124.215 17.8633C124.238 16.2227 124.25 14.2539 124.25 11.957C124.25 9.00391 123.887 7.09375 123.16 6.22656C122.457 5.35937 121.121 4.92578 119.152 4.92578H118.414V1.83203C120.922 1.94922 122.996 2.04297 124.637 2.11328C126.277 2.16016 127.707 2.18359 128.926 2.18359C130.66 2.18359 132.816 2.125 135.395 2.00781C137.973 1.89063 139.707 1.83203 140.598 1.83203C146.41 1.83203 150.992 3.03906 154.344 5.45312C157.695 7.86719 159.371 11.1484 159.371 15.2969C159.371 18.0625 158.527 20.5 156.84 22.6094C155.176 24.7188 152.668 26.5234 149.316 28.0234L156.207 37.7266C159.488 42.8359 161.879 46.0469 163.379 47.3594C164.902 48.6719 166.52 49.3281 168.23 49.3281C168.324 49.3281 168.453 49.3164 168.617 49.293C168.805 49.2695 168.945 49.2578 169.039 49.2578V52.2109C167.609 52.3281 166.367 52.4102 165.312 52.457C164.258 52.5273 163.332 52.5625 162.535 52.5625C159.676 52.5625 157.438 52.2461 155.82 51.6133C154.203 50.9805 152.75 49.8906 151.461 48.3438C150.852 47.6172 149.352 45.2852 146.961 41.3477C144.57 37.3867 142.473 34 140.668 31.1875C139.215 31.2344 137.926 31.2695 136.801 31.293C135.676 31.3164 134.586 31.3281 133.531 31.3281V40.6797C133.531 44.2656 133.883 46.5273 134.586 47.4648C135.289 48.3789 136.672 48.8359 138.734 48.8359H139.719V52C137.797 51.8828 135.875 51.8008 133.953 51.7539C132.031 51.6836 130.062 51.6484 128.047 51.6484C127.391 51.6484 126.418 51.6719 125.129 51.7188C123.863 51.7422 121.414 51.8359 117.781 52V48.9062ZM172.695 1.76172C176.68 1.92578 180.359 2.05469 183.734 2.14844C187.109 2.21875 190.074 2.25391 192.629 2.25391C196.918 2.25391 200.539 2.21875 203.492 2.14844C206.469 2.05469 209.234 1.92578 211.789 1.76172C211.836 3.80078 211.93 5.81641 212.07 7.80859C212.211 9.77734 212.41 11.7695 212.668 13.7852L209.504 14.207C209.176 11.2773 208.203 9.29687 206.586 8.26562C204.992 7.23438 201.781 6.71875 196.953 6.71875C196.086 6.71875 194.926 6.74219 193.473 6.78906C192.043 6.8125 190.285 6.85938 188.199 6.92969C188.152 10.0234 188.105 12.9883 188.059 15.8242C188.035 18.6602 188 21.3789 187.953 23.9805H188.973C190.332 23.9805 192.02 23.9922 194.035 24.0156C196.074 24.0391 197.434 24.0508 198.113 24.0508C201.348 24.0508 203.469 23.7344 204.477 23.1016C205.484 22.4688 206.023 21.2617 206.094 19.4805L208.695 19.7266C208.695 20.8984 208.66 22.375 208.59 24.1562C208.52 25.9141 208.484 27.1094 208.484 27.7422C208.484 28.375 208.496 29.1836 208.52 30.168C208.566 31.1523 208.625 32.3359 208.695 33.7188L205.742 33.9297V33.5078C205.742 31.4922 205.156 30.1328 203.984 29.4297C202.836 28.7266 200.105 28.375 195.793 28.375H190.555H187.883V32.418C187.883 34.5039 187.895 36.6484 187.918 38.8516C187.941 41.0312 187.977 43.6328 188.023 46.6562C189.078 46.7969 190.391 46.9141 191.961 47.0078C193.555 47.0781 195.289 47.1133 197.164 47.1133C202.766 47.1133 206.492 46.5273 208.344 45.3555C210.219 44.1836 211.73 41.9336 212.879 38.6055L216.113 39.625C215.34 41.875 214.672 44.0195 214.109 46.0586C213.57 48.0977 213.113 50.0781 212.738 52C207.207 51.8125 202.801 51.6836 199.52 51.6133C196.238 51.543 193.32 51.5078 190.766 51.5078C187.883 51.5078 183.277 51.6133 176.949 51.8242C174.77 51.8945 173.117 51.9531 171.992 52V48.9062C172.133 48.9297 172.285 48.9531 172.449 48.9766C172.637 48.9766 172.906 48.9766 173.258 48.9766C175.227 48.9766 176.562 48.3789 177.266 47.1836C177.969 45.9648 178.32 42.7891 178.32 37.6562V34.1406V30.9062L178.391 23.0664C178.391 22.7148 178.402 22.1875 178.426 21.4844C178.496 18.6016 178.531 16.6328 178.531 15.5781C178.531 14.5234 178.52 13.4219 178.496 12.2734C178.473 11.125 178.461 10.4922 178.461 10.375C178.461 8.33594 178.086 6.91797 177.336 6.12109C176.609 5.32422 175.332 4.92578 173.504 4.92578H172.695V1.76172ZM266.422 3.55469C266.422 3.78906 266.41 4.16406 266.387 4.67969C266.363 5.17188 266.352 5.53516 266.352 5.76953C266.352 7.33984 266.422 9.00391 266.562 10.7617C266.703 12.5195 266.926 14.4531 267.23 16.5625L263.75 17.1602C263.375 13.668 261.887 10.9609 259.285 9.03906C256.684 7.09375 253.25 6.12109 248.984 6.12109C243.547 6.12109 239.328 7.82031 236.328 11.2188C233.352 14.5938 231.863 19.375 231.863 25.5625C231.863 32.2422 233.551 37.5625 236.926 41.5234C240.324 45.4844 244.859 47.4648 250.531 47.4648C254.094 47.4648 257.129 46.6562 259.637 45.0391C262.168 43.4219 264.219 40.9609 265.789 37.6562L268.883 39.0977C267.945 40.9492 267.125 42.7656 266.422 44.5469C265.719 46.3047 265.121 48.0508 264.629 49.7852C261.793 50.9336 259.016 51.8008 256.297 52.3867C253.602 52.9961 251 53.3008 248.492 53.3008C240.336 53.3008 233.727 50.8867 228.664 46.0586C223.602 41.2305 221.07 34.9258 221.07 27.1445C221.07 19.457 223.719 13.1289 229.016 8.16016C234.336 3.16797 241.074 0.671875 249.23 0.671875C252.16 0.671875 255.031 0.90625 257.844 1.375C260.68 1.84375 263.539 2.57031 266.422 3.55469ZM288.992 26.7227C290.234 26.793 291.289 26.8516 292.156 26.8984C293.023 26.9219 293.75 26.9336 294.336 26.9336C295.062 26.9336 295.836 26.9219 296.656 26.8984C297.477 26.8516 298.332 26.793 299.223 26.7227C301.262 25.4102 302.75 23.9219 303.688 22.2578C304.648 20.5703 305.129 18.6016 305.129 16.3516C305.129 13.4219 304.133 11.0547 302.141 9.25C300.172 7.42188 297.547 6.50781 294.266 6.50781C293.258 6.50781 292.332 6.54297 291.488 6.61328C290.668 6.68359 289.859 6.78906 289.062 6.92969C289.039 9.48438 289.016 12.1563 288.992 14.9453C288.992 17.7344 288.992 21.6602 288.992 26.7227ZM273.242 48.9062C273.43 48.9297 273.605 48.9531 273.77 48.9766C273.957 48.9766 274.238 48.9766 274.613 48.9766C276.535 48.9766 277.824 48.3438 278.48 47.0781C279.16 45.8125 279.5 42.4609 279.5 37.0234V34.4219V31.9961V30.6953L279.641 22.8203C279.664 21.1562 279.676 19.5039 279.676 17.8633C279.699 16.2227 279.711 14.2539 279.711 11.957C279.711 9.00391 279.348 7.09375 278.621 6.22656C277.918 5.35937 276.582 4.92578 274.613 4.92578H273.875V1.83203C276.383 1.94922 278.457 2.04297 280.098 2.11328C281.738 2.16016 283.168 2.18359 284.387 2.18359C286.121 2.18359 288.277 2.125 290.855 2.00781C293.434 1.89063 295.168 1.83203 296.059 1.83203C301.871 1.83203 306.453 3.03906 309.805 5.45312C313.156 7.86719 314.832 11.1484 314.832 15.2969C314.832 18.0625 313.988 20.5 312.301 22.6094C310.637 24.7188 308.129 26.5234 304.777 28.0234L311.668 37.7266C314.949 42.8359 317.34 46.0469 318.84 47.3594C320.363 48.6719 321.98 49.3281 323.691 49.3281C323.785 49.3281 323.914 49.3164 324.078 49.293C324.266 49.2695 324.406 49.2578 324.5 49.2578V52.2109C323.07 52.3281 321.828 52.4102 320.773 52.457C319.719 52.5273 318.793 52.5625 317.996 52.5625C315.137 52.5625 312.898 52.2461 311.281 51.6133C309.664 50.9805 308.211 49.8906 306.922 48.3438C306.312 47.6172 304.812 45.2852 302.422 41.3477C300.031 37.3867 297.934 34 296.129 31.1875C294.676 31.2344 293.387 31.2695 292.262 31.293C291.137 31.3164 290.047 31.3281 288.992 31.3281V40.6797C288.992 44.2656 289.344 46.5273 290.047 47.4648C290.75 48.3789 292.133 48.8359 294.195 48.8359H295.18V52C293.258 51.8828 291.336 51.8008 289.414 51.7539C287.492 51.6836 285.523 51.6484 283.508 51.6484C282.852 51.6484 281.879 51.6719 280.59 51.7188C279.324 51.7422 276.875 51.8359 273.242 52V48.9062ZM349.109 1.83203V4.99609C348.969 4.99609 348.77 4.98438 348.512 4.96094C348.254 4.9375 348.066 4.92578 347.949 4.92578C345.957 4.92578 344.609 5.51172 343.906 6.68359C343.203 7.83203 342.852 10.7734 342.852 15.5078V18.3203V23.5586C342.852 28.293 342.934 31.6562 343.098 33.6484C343.262 35.6172 343.543 37.1758 343.941 38.3242C344.832 41.1133 346.402 43.2578 348.652 44.7578C350.902 46.2344 353.668 46.9727 356.949 46.9727C359.645 46.9727 361.941 46.5273 363.84 45.6367C365.738 44.7227 367.285 43.3398 368.48 41.4883C369.277 40.2461 369.84 38.6289 370.168 36.6367C370.52 34.6211 370.695 31.6328 370.695 27.6719C370.695 26.9219 370.684 25.6797 370.66 23.9453C370.637 22.1875 370.625 20.8164 370.625 19.832V16.1406C370.625 11.1953 370.273 8.08984 369.57 6.82422C368.867 5.55859 367.52 4.92578 365.527 4.92578C365.223 4.92578 364.988 4.9375 364.824 4.96094C364.66 4.96094 364.508 4.96094 364.367 4.96094V1.83203C366.547 1.94922 368.352 2.04297 369.781 2.11328C371.234 2.16016 372.477 2.18359 373.508 2.18359C374.469 2.18359 375.629 2.16016 376.988 2.11328C378.371 2.04297 380.164 1.94922 382.367 1.83203V4.99609H381.805C380.398 4.99609 379.355 5.16016 378.676 5.48828C377.996 5.79297 377.504 6.34375 377.199 7.14062C376.754 8.3125 376.473 13.4102 376.355 22.4336C376.355 23.7227 376.344 24.7188 376.32 25.4219C376.32 25.8672 376.32 26.5117 376.32 27.3555C376.273 35.3711 375.406 40.8789 373.719 43.8789C372.031 46.8789 369.547 49.1992 366.266 50.8398C362.984 52.4805 359.164 53.3008 354.805 53.3008C350.797 53.3008 347.234 52.6445 344.117 51.332C341.023 49.9961 338.586 48.1094 336.805 45.6719C335.469 43.8438 334.52 41.7344 333.957 39.3438C333.395 36.9531 333.113 33.3906 333.113 28.6562C333.113 27.3906 333.148 25.1406 333.219 21.9062C333.289 18.6719 333.324 16.082 333.324 14.1367C333.324 10.0352 332.984 7.49219 332.305 6.50781C331.648 5.5 330.336 4.99609 328.367 4.99609H327.523V1.83203C330.172 1.94922 332.316 2.04297 333.957 2.11328C335.621 2.16016 337.051 2.18359 338.246 2.18359C339.348 2.18359 340.73 2.16016 342.395 2.11328C344.059 2.04297 346.297 1.94922 349.109 1.83203ZM387.008 1.83203C389.305 1.97266 391.402 2.07812 393.301 2.14844C395.223 2.21875 396.934 2.25391 398.434 2.25391C399.91 2.25391 401.562 2.21875 403.391 2.14844C405.242 2.07812 407.293 1.97266 409.543 1.83203V4.99609H408.805C407.188 4.99609 406.027 5.16016 405.324 5.48828C404.645 5.81641 404.152 6.41406 403.848 7.28125C403.59 8.00781 403.402 9.4375 403.285 11.5703C403.168 13.7031 403.109 17.5352 403.109 23.0664V37.5156C403.109 40.8203 403.168 43.1172 403.285 44.4062C403.426 45.6719 403.66 46.5977 403.988 47.1836C404.316 47.7695 404.867 48.1914 405.641 48.4492C406.414 48.707 407.562 48.8359 409.086 48.8359H409.965V52C407.387 51.8594 405.125 51.7539 403.18 51.6836C401.234 51.6133 399.582 51.5781 398.223 51.5781C396.98 51.5781 395.375 51.6133 393.406 51.6836C391.438 51.7539 389.152 51.8594 386.551 52V48.8359H387.43C389 48.8359 390.172 48.707 390.945 48.4492C391.719 48.1914 392.246 47.7695 392.527 47.1836C392.879 46.5273 393.125 45.4609 393.266 43.9844C393.406 42.4844 393.477 39.7773 393.477 35.8633V30.5547V15.2969C393.477 12.3906 393.406 10.3633 393.266 9.21484C393.148 8.04297 392.926 7.17578 392.598 6.61328C392.293 6.05078 391.754 5.64062 390.98 5.38281C390.23 5.125 389.141 4.99609 387.711 4.99609H387.008V1.83203ZM424.625 48.8359H425.926C427.496 48.8359 428.645 48.6719 429.371 48.3438C430.098 47.9922 430.637 47.3828 430.988 46.5156C431.223 45.8594 431.387 44.2656 431.48 41.7344C431.574 39.2031 431.621 34.5156 431.621 27.6719V7.5625H425.574C421.895 7.5625 419.375 8.07813 418.016 9.10938C416.656 10.1406 415.719 12.1211 415.203 15.0508L411.898 14.3477C412.438 12.0273 412.848 9.8125 413.129 7.70312C413.434 5.57031 413.621 3.47266 413.691 1.41016C414.582 1.71484 415.836 1.9375 417.453 2.07812C419.07 2.19531 421.801 2.25391 425.645 2.25391H433.414H437.809H446.738C451.051 2.25391 454.051 2.19531 455.738 2.07812C457.449 1.9375 458.703 1.70312 459.5 1.375V2.46484C459.5 4.29297 459.57 6.19141 459.711 8.16016C459.875 10.1055 460.109 12.168 460.414 14.3477L457.25 14.8398C456.852 11.9805 456.043 10.0586 454.824 9.07422C453.605 8.06641 451.203 7.5625 447.617 7.5625H446.738H441.43C441.359 11.3125 441.312 15.0039 441.289 18.6367C441.266 22.2695 441.254 26.5 441.254 31.3281V37.9023C441.254 40.9961 441.324 43.1641 441.465 44.4062C441.605 45.6484 441.828 46.5742 442.133 47.1836C442.484 47.7695 443.035 48.1914 443.785 48.4492C444.535 48.707 445.59 48.8359 446.949 48.8359H448.18V52C447.594 51.9766 446.727 51.9414 445.578 51.8945C440.984 51.6836 437.844 51.5781 436.156 51.5781C434.938 51.5781 433.367 51.6133 431.445 51.6836C429.547 51.7539 427.273 51.8594 424.625 52V48.8359Z" fill="#808080"/>
<path d="M39.092 29.792L40.988 32.048C37.268 33.08 32.084 33.656 27.692 33.896C27.596 33.248 27.236 32.216 26.948 31.592C31.244 31.304 36.116 30.68 39.092 29.792ZM27.284 35L29.564 34.4C30.284 35.816 30.98 37.688 31.172 38.912L28.724 39.632C28.556 38.408 27.956 36.464 27.284 35ZM31.94 34.256L34.34 33.8C34.892 35.216 35.348 37.016 35.42 38.192L32.852 38.696C32.828 37.568 32.444 35.696 31.94 34.256ZM38.924 33.392L41.636 34.376C40.604 36.416 39.356 38.672 38.348 40.112L36.116 39.2C37.076 37.688 38.276 35.216 38.924 33.392ZM27.26 41.624H41.444V44.12H27.26V41.624ZM32.9 39.152H35.636V51.992H32.9V39.152ZM32.036 43.064L34.292 43.856C32.828 46.832 30.332 49.616 27.62 51.128C27.188 50.432 26.324 49.424 25.7 48.896C28.292 47.72 30.764 45.416 32.036 43.064ZM36.476 43.184C37.628 45.392 39.884 47.648 42.14 48.848C41.516 49.352 40.652 50.336 40.244 50.984C37.892 49.496 35.612 46.736 34.292 43.952L36.476 43.184ZM18.98 41.696C20.9 41.264 23.756 40.496 26.468 39.728L26.852 42.32C24.38 43.088 21.74 43.856 19.628 44.456L18.98 41.696ZM19.364 34.184H26.708V36.824H19.364V34.184ZM21.908 29.648H24.548V49.112C24.548 50.456 24.308 51.2 23.564 51.632C22.844 52.088 21.812 52.184 20.252 52.184C20.18 51.464 19.844 50.288 19.508 49.496C20.372 49.544 21.212 49.544 21.5 49.52C21.788 49.52 21.908 49.448 21.908 49.112V29.648ZM47.54 31.232H62.276V33.968H47.54V31.232ZM47.54 36.752H62.324V39.44H47.54V36.752ZM47.492 42.416H62.42V45.128H47.492V42.416ZM45.884 31.232H48.74V39.872C48.74 43.688 48.26 49.088 45.308 52.304C44.852 51.752 43.676 50.792 43.052 50.432C45.668 47.528 45.884 43.232 45.884 39.848V31.232ZM61.268 31.232H64.124V48.776C64.124 50.312 63.788 51.08 62.828 51.536C61.82 51.992 60.38 52.04 58.196 52.016C58.076 51.248 57.644 50 57.26 49.256C58.628 49.352 60.212 49.328 60.644 49.328C61.1 49.304 61.268 49.16 61.268 48.752V31.232ZM53.276 32.312H56.204V51.872H53.276V32.312ZM77.588 43.448H85.892V45.488H77.588V43.448ZM74.636 31.256H88.964V33.32H74.636V31.256ZM75.284 34.28H88.292V36.224H75.284V34.28ZM73.892 37.232H89.708V39.296H73.892V37.232ZM77.612 46.568H85.94V48.56H77.612V46.568ZM75.5 40.232H85.772V42.32H78.164V52.184H75.5V40.232ZM85.364 40.232H88.076V49.4C88.076 50.648 87.836 51.344 86.972 51.728C86.108 52.136 84.932 52.16 83.252 52.16C83.156 51.44 82.796 50.384 82.484 49.712C83.444 49.76 84.596 49.76 84.932 49.736C85.244 49.736 85.364 49.64 85.364 49.352V40.232ZM80.276 29.624H83.132V37.904H80.276V29.624ZM69.956 29.624H72.548V52.16H69.956V29.624ZM67.892 34.376L69.908 34.616C69.86 36.632 69.476 39.512 68.996 41.384L66.884 40.664C67.412 39.008 67.748 36.32 67.892 34.376ZM72.164 33.632L73.94 32.888C74.444 33.992 75.068 35.456 75.332 36.344L73.46 37.232C73.22 36.296 72.644 34.784 72.164 33.632ZM104.06 38.912H111.404V41.192H104.06V38.912ZM102.644 30.632H111.476V33.152H105.236V52.16H102.644V30.632ZM110.012 30.632H112.676V35.168C112.676 36.392 112.436 37.112 111.5 37.496C110.564 37.88 109.268 37.904 107.492 37.904C107.396 37.16 107.036 36.128 106.7 35.432C107.876 35.48 109.196 35.48 109.532 35.48C109.916 35.456 110.012 35.384 110.012 35.12V30.632ZM107.084 40.592C108.284 44.576 110.708 48.2 114.092 49.904C113.468 50.432 112.628 51.464 112.196 52.184C108.644 50.048 106.292 45.944 104.924 41.144L107.084 40.592ZM110.564 38.912H111.068L111.524 38.792L113.252 39.416C112.388 44.888 110.18 49.544 106.58 52.208C106.148 51.56 105.308 50.72 104.684 50.24C107.972 47.96 109.964 43.808 110.564 39.464V38.912ZM92.084 31.76H101.3V34.136H92.084V31.76ZM91.916 45.296H101.564V47.72H91.916V45.296ZM91.22 35.792H102.188V38.216H91.22V35.792ZM91.7 41H101.828V43.424H91.7V41ZM95.492 29.696H98.156V36.704H95.492V29.696ZM95.492 42.008H98.156V52.088H95.492V42.008ZM98.756 37.856L101.132 38.432C100.652 39.536 100.244 40.616 99.86 41.36L97.82 40.784C98.156 39.968 98.564 38.72 98.756 37.856ZM92.732 38.432L94.868 37.904C95.324 38.792 95.756 40.04 95.852 40.784L93.596 41.408C93.5 40.64 93.14 39.392 92.732 38.432Z" fill="#808080"/>
</svg>
