<svg width="346" height="94" viewBox="0 0 346 94" fill="none" xmlns="http://www.w3.org/2000/svg">
<path d="M57.6562 47.875C57.6562 43.4531 56.6328 39.8984 54.5859 37.2109C52.5391 34.5234 49.8516 33.1797 46.5234 33.1797C43.3359 33.1797 40.7891 34.375 38.8828 36.7656C36.9922 39.1562 36.0469 42.3906 36.0469 46.4688C36.0469 50.9219 37.0781 54.5 39.1406 57.2031C41.2188 59.9062 43.9141 61.2578 47.2266 61.2578C50.4297 61.2578 52.9688 60.0625 54.8438 57.6719C56.7188 55.2812 57.6562 52.0156 57.6562 47.875ZM46.8984 29.6875C49.3828 29.6875 51.6016 30.0312 53.5547 30.7188C55.5078 31.3906 57.3047 32.4375 58.9453 33.8594C60.8516 35.5156 62.3203 37.4922 63.3516 39.7891C64.3828 42.0703 64.8984 44.4922 64.8984 47.0547C64.8984 52.1484 63.1719 56.3906 59.7188 59.7812C56.2656 63.1719 51.9453 64.8672 46.7578 64.8672C44.0547 64.8672 41.6094 64.4297 39.4219 63.5547C37.2344 62.6641 35.2969 61.3438 33.6094 59.5938C32.0469 57.9531 30.8516 56.0859 30.0234 53.9922C29.2109 51.8828 28.8047 49.6484 28.8047 47.2891C28.8047 44.6797 29.3125 42.2578 30.3281 40.0234C31.3594 37.7734 32.8516 35.8125 34.8047 34.1406C36.4297 32.7344 38.3047 31.6406 40.4297 30.8594C42.5547 30.0781 44.7109 29.6875 46.8984 29.6875ZM65.8828 30.5547C66.4141 30.5703 67.1562 30.6016 68.1094 30.6484C70.5625 30.7734 72.2031 30.8359 73.0312 30.8359C74.125 30.8359 76.1406 30.7656 79.0781 30.625C79.8281 30.5938 80.4062 30.5703 80.8125 30.5547V32.5938C79.3438 32.625 78.3828 32.7812 77.9297 33.0625C77.4922 33.3438 77.2734 33.8828 77.2734 34.6797C77.2734 34.9766 77.3281 35.3516 77.4375 35.8047C77.5469 36.2578 77.7578 36.9531 78.0703 37.8906L84.8672 56.9688L85.0078 56.5938C90.3984 43.1562 93.0938 35.8047 93.0938 34.5391C93.0938 33.8047 92.8672 33.2969 92.4141 33.0156C91.9609 32.7344 91.0391 32.5781 89.6484 32.5469V30.5547C89.8984 30.5703 90.2656 30.5859 90.75 30.6016C93.1406 30.7578 94.8203 30.8359 95.7891 30.8359C96.5703 30.8359 98.0859 30.7656 100.336 30.625C101.023 30.5938 101.555 30.5703 101.93 30.5547V32.6641C101.32 32.6641 100.781 32.7109 100.312 32.8047C99.8594 32.8984 99.4766 33.0391 99.1641 33.2266C98.5703 33.6016 97.5469 35.5312 96.0938 39.0156C95.4844 40.4688 95 41.6094 94.6406 42.4375C91.4062 50 89.1016 55.4688 87.7266 58.8438C86.3516 62.2031 85.6641 64.0469 85.6641 64.375H80.8594C80.8594 63.9844 79.9609 61.2656 78.1641 56.2188C76.3828 51.1719 74.2734 45.5703 71.8359 39.4141C71.7109 39.0859 71.5234 38.6172 71.2734 38.0078C69.8359 34.3516 68.2344 32.5234 66.4688 32.5234C66.4062 32.5234 66.3047 32.5312 66.1641 32.5469C66.0391 32.5625 65.9453 32.5703 65.8828 32.5703V30.5547ZM104.367 30.5078C107.023 30.6172 109.477 30.7031 111.727 30.7656C113.977 30.8125 115.953 30.8359 117.656 30.8359C120.516 30.8359 122.93 30.8125 124.898 30.7656C126.883 30.7031 128.727 30.6172 130.43 30.5078C130.461 31.8672 130.523 33.2109 130.617 34.5391C130.711 35.8516 130.844 37.1797 131.016 38.5234L128.906 38.8047C128.688 36.8516 128.039 35.5312 126.961 34.8438C125.898 34.1562 123.758 33.8125 120.539 33.8125C119.961 33.8125 119.188 33.8281 118.219 33.8594C117.266 33.875 116.094 33.9062 114.703 33.9531C114.672 36.0156 114.641 37.9922 114.609 39.8828C114.594 41.7734 114.57 43.5859 114.539 45.3203H115.219C116.125 45.3203 117.25 45.3281 118.594 45.3438C119.953 45.3594 120.859 45.3672 121.312 45.3672C123.469 45.3672 124.883 45.1562 125.555 44.7344C126.227 44.3125 126.586 43.5078 126.633 42.3203L128.367 42.4844C128.367 43.2656 128.344 44.25 128.297 45.4375C128.25 46.6094 128.227 47.4062 128.227 47.8281C128.227 48.25 128.234 48.7891 128.25 49.4453C128.281 50.1016 128.32 50.8906 128.367 51.8125L126.398 51.9531V51.6719C126.398 50.3281 126.008 49.4219 125.227 48.9531C124.461 48.4844 122.641 48.25 119.766 48.25H116.273H114.492V50.9453C114.492 52.3359 114.5 53.7656 114.516 55.2344C114.531 56.6875 114.555 58.4219 114.586 60.4375C115.289 60.5312 116.164 60.6094 117.211 60.6719C118.273 60.7188 119.43 60.7422 120.68 60.7422C124.414 60.7422 126.898 60.3516 128.133 59.5703C129.383 58.7891 130.391 57.2891 131.156 55.0703L133.312 55.75C132.797 57.25 132.352 58.6797 131.977 60.0391C131.617 61.3984 131.312 62.7188 131.062 64C127.375 63.875 124.438 63.7891 122.25 63.7422C120.062 63.6953 118.117 63.6719 116.414 63.6719C114.492 63.6719 111.422 63.7422 107.203 63.8828C105.75 63.9297 104.648 63.9688 103.898 64V61.9375C103.992 61.9531 104.094 61.9688 104.203 61.9844C104.328 61.9844 104.508 61.9844 104.742 61.9844C106.055 61.9844 106.945 61.5859 107.414 60.7891C107.883 59.9766 108.117 57.8594 108.117 54.4375V52.0938V49.9375L108.164 44.7109C108.164 44.4766 108.172 44.125 108.188 43.6562C108.234 41.7344 108.258 40.4219 108.258 39.7188C108.258 39.0156 108.25 38.2812 108.234 37.5156C108.219 36.75 108.211 36.3281 108.211 36.25C108.211 34.8906 107.961 33.9453 107.461 33.4141C106.977 32.8828 106.125 32.6172 104.906 32.6172H104.367V30.5078ZM146.883 47.1484C147.711 47.1953 148.414 47.2344 148.992 47.2656C149.57 47.2812 150.055 47.2891 150.445 47.2891C150.93 47.2891 151.445 47.2812 151.992 47.2656C152.539 47.2344 153.109 47.1953 153.703 47.1484C155.062 46.2734 156.055 45.2812 156.68 44.1719C157.32 43.0469 157.641 41.7344 157.641 40.2344C157.641 38.2812 156.977 36.7031 155.648 35.5C154.336 34.2812 152.586 33.6719 150.398 33.6719C149.727 33.6719 149.109 33.6953 148.547 33.7422C148 33.7891 147.461 33.8594 146.93 33.9531C146.914 35.6562 146.898 37.4375 146.883 39.2969C146.883 41.1562 146.883 43.7734 146.883 47.1484ZM136.383 61.9375C136.508 61.9531 136.625 61.9688 136.734 61.9844C136.859 61.9844 137.047 61.9844 137.297 61.9844C138.578 61.9844 139.438 61.5625 139.875 60.7188C140.328 59.875 140.555 57.6406 140.555 54.0156V52.2812V50.6641V49.7969L140.648 44.5469C140.664 43.4375 140.672 42.3359 140.672 41.2422C140.688 40.1484 140.695 38.8359 140.695 37.3047C140.695 35.3359 140.453 34.0625 139.969 33.4844C139.5 32.9062 138.609 32.6172 137.297 32.6172H136.805V30.5547C138.477 30.6328 139.859 30.6953 140.953 30.7422C142.047 30.7734 143 30.7891 143.812 30.7891C144.969 30.7891 146.406 30.75 148.125 30.6719C149.844 30.5938 151 30.5547 151.594 30.5547C155.469 30.5547 158.523 31.3594 160.758 32.9688C162.992 34.5781 164.109 36.7656 164.109 39.5312C164.109 41.375 163.547 43 162.422 44.4062C161.312 45.8125 159.641 47.0156 157.406 48.0156L162 54.4844C164.188 57.8906 165.781 60.0312 166.781 60.9062C167.797 61.7812 168.875 62.2188 170.016 62.2188C170.078 62.2188 170.164 62.2109 170.273 62.1953C170.398 62.1797 170.492 62.1719 170.555 62.1719V64.1406C169.602 64.2188 168.773 64.2734 168.07 64.3047C167.367 64.3516 166.75 64.375 166.219 64.375C164.312 64.375 162.82 64.1641 161.742 63.7422C160.664 63.3203 159.695 62.5938 158.836 61.5625C158.43 61.0781 157.43 59.5234 155.836 56.8984C154.242 54.2578 152.844 52 151.641 50.125C150.672 50.1562 149.812 50.1797 149.062 50.1953C148.312 50.2109 147.586 50.2188 146.883 50.2188V56.4531C146.883 58.8438 147.117 60.3516 147.586 60.9766C148.055 61.5859 148.977 61.8906 150.352 61.8906H151.008V64C149.727 63.9219 148.445 63.8672 147.164 63.8359C145.883 63.7891 144.57 63.7656 143.227 63.7656C142.789 63.7656 142.141 63.7812 141.281 63.8125C140.438 63.8281 138.805 63.8906 136.383 64V61.9375ZM167.273 30.5547C167.805 30.5703 168.547 30.6016 169.5 30.6484C171.953 30.7734 173.594 30.8359 174.422 30.8359C175.516 30.8359 177.531 30.7656 180.469 30.625C181.219 30.5938 181.797 30.5703 182.203 30.5547V32.5938C180.734 32.625 179.773 32.7812 179.32 33.0625C178.883 33.3438 178.664 33.8828 178.664 34.6797C178.664 34.9766 178.719 35.3516 178.828 35.8047C178.938 36.2578 179.148 36.9531 179.461 37.8906L186.258 56.9688L186.398 56.5938C191.789 43.1562 194.484 35.8047 194.484 34.5391C194.484 33.8047 194.258 33.2969 193.805 33.0156C193.352 32.7344 192.43 32.5781 191.039 32.5469V30.5547C191.289 30.5703 191.656 30.5859 192.141 30.6016C194.531 30.7578 196.211 30.8359 197.18 30.8359C197.961 30.8359 199.477 30.7656 201.727 30.625C202.414 30.5938 202.945 30.5703 203.32 30.5547V32.6641C202.711 32.6641 202.172 32.7109 201.703 32.8047C201.25 32.8984 200.867 33.0391 200.555 33.2266C199.961 33.6016 198.938 35.5312 197.484 39.0156C196.875 40.4688 196.391 41.6094 196.031 42.4375C192.797 50 190.492 55.4688 189.117 58.8438C187.742 62.2031 187.055 64.0469 187.055 64.375H182.25C182.25 63.9844 181.352 61.2656 179.555 56.2188C177.773 51.1719 175.664 45.5703 173.227 39.4141C173.102 39.0859 172.914 38.6172 172.664 38.0078C171.227 34.3516 169.625 32.5234 167.859 32.5234C167.797 32.5234 167.695 32.5312 167.555 32.5469C167.43 32.5625 167.336 32.5703 167.273 32.5703V30.5547ZM205.43 30.5547C206.961 30.6484 208.359 30.7188 209.625 30.7656C210.906 30.8125 212.047 30.8359 213.047 30.8359C214.031 30.8359 215.133 30.8125 216.352 30.7656C217.586 30.7188 218.953 30.6484 220.453 30.5547V32.6641H219.961C218.883 32.6641 218.109 32.7734 217.641 32.9922C217.188 33.2109 216.859 33.6094 216.656 34.1875C216.484 34.6719 216.359 35.625 216.281 37.0469C216.203 38.4688 216.164 41.0234 216.164 44.7109V54.3438C216.164 56.5469 216.203 58.0781 216.281 58.9375C216.375 59.7812 216.531 60.3984 216.75 60.7891C216.969 61.1797 217.336 61.4609 217.852 61.6328C218.367 61.8047 219.133 61.8906 220.148 61.8906H220.734V64C219.016 63.9062 217.508 63.8359 216.211 63.7891C214.914 63.7422 213.812 63.7188 212.906 63.7188C212.078 63.7188 211.008 63.7422 209.695 63.7891C208.383 63.8359 206.859 63.9062 205.125 64V61.8906H205.711C206.758 61.8906 207.539 61.8047 208.055 61.6328C208.57 61.4609 208.922 61.1797 209.109 60.7891C209.344 60.3516 209.508 59.6406 209.602 58.6562C209.695 57.6562 209.742 55.8516 209.742 53.2422V49.7031V39.5312C209.742 37.5938 209.695 36.2422 209.602 35.4766C209.523 34.6953 209.375 34.1172 209.156 33.7422C208.953 33.3672 208.594 33.0938 208.078 32.9219C207.578 32.75 206.852 32.6641 205.898 32.6641H205.43V30.5547ZM224.133 30.5078C226.789 30.6172 229.242 30.7031 231.492 30.7656C233.742 30.8125 235.719 30.8359 237.422 30.8359C240.281 30.8359 242.695 30.8125 244.664 30.7656C246.648 30.7031 248.492 30.6172 250.195 30.5078C250.227 31.8672 250.289 33.2109 250.383 34.5391C250.477 35.8516 250.609 37.1797 250.781 38.5234L248.672 38.8047C248.453 36.8516 247.805 35.5312 246.727 34.8438C245.664 34.1562 243.523 33.8125 240.305 33.8125C239.727 33.8125 238.953 33.8281 237.984 33.8594C237.031 33.875 235.859 33.9062 234.469 33.9531C234.438 36.0156 234.406 37.9922 234.375 39.8828C234.359 41.7734 234.336 43.5859 234.305 45.3203H234.984C235.891 45.3203 237.016 45.3281 238.359 45.3438C239.719 45.3594 240.625 45.3672 241.078 45.3672C243.234 45.3672 244.648 45.1562 245.32 44.7344C245.992 44.3125 246.352 43.5078 246.398 42.3203L248.133 42.4844C248.133 43.2656 248.109 44.25 248.062 45.4375C248.016 46.6094 247.992 47.4062 247.992 47.8281C247.992 48.25 248 48.7891 248.016 49.4453C248.047 50.1016 248.086 50.8906 248.133 51.8125L246.164 51.9531V51.6719C246.164 50.3281 245.773 49.4219 244.992 48.9531C244.227 48.4844 242.406 48.25 239.531 48.25H236.039H234.258V50.9453C234.258 52.3359 234.266 53.7656 234.281 55.2344C234.297 56.6875 234.32 58.4219 234.352 60.4375C235.055 60.5312 235.93 60.6094 236.977 60.6719C238.039 60.7188 239.195 60.7422 240.445 60.7422C244.18 60.7422 246.664 60.3516 247.898 59.5703C249.148 58.7891 250.156 57.2891 250.922 55.0703L253.078 55.75C252.562 57.25 252.117 58.6797 251.742 60.0391C251.383 61.3984 251.078 62.7188 250.828 64C247.141 63.875 244.203 63.7891 242.016 63.7422C239.828 63.6953 237.883 63.6719 236.18 63.6719C234.258 63.6719 231.188 63.7422 226.969 63.8828C225.516 63.9297 224.414 63.9688 223.664 64V61.9375C223.758 61.9531 223.859 61.9688 223.969 61.9844C224.094 61.9844 224.273 61.9844 224.508 61.9844C225.82 61.9844 226.711 61.5859 227.18 60.7891C227.648 59.9766 227.883 57.8594 227.883 54.4375V52.0938V49.9375L227.93 44.7109C227.93 44.4766 227.938 44.125 227.953 43.6562C228 41.7344 228.023 40.4219 228.023 39.7188C228.023 39.0156 228.016 38.2812 228 37.5156C227.984 36.75 227.977 36.3281 227.977 36.25C227.977 34.8906 227.727 33.9453 227.227 33.4141C226.742 32.8828 225.891 32.6172 224.672 32.6172H224.133V30.5078ZM272.602 56.4531L279.094 40L277.734 35.7812C277.328 34.4844 276.906 33.6328 276.469 33.2266C276.031 32.8203 275.383 32.6172 274.523 32.6172C274.414 32.6172 274.258 32.625 274.055 32.6406C273.852 32.6562 273.703 32.6641 273.609 32.6641V30.5547C273.875 30.5547 274.273 30.5703 274.805 30.6016C277.586 30.7578 279.508 30.8359 280.57 30.8359C281.289 30.8359 282.195 30.8125 283.289 30.7656C284.398 30.7188 285.719 30.6484 287.25 30.5547V32.6641C287.125 32.6641 286.961 32.6562 286.758 32.6406C286.57 32.625 286.43 32.6172 286.336 32.6172C285.43 32.6172 284.789 32.7578 284.414 33.0391C284.055 33.3203 283.875 33.8203 283.875 34.5391C283.875 34.8828 283.961 35.3828 284.133 36.0391C284.305 36.6953 284.57 37.5859 284.93 38.7109L290.602 56.4062L291.891 52.7031C295.703 41.7969 297.609 35.7578 297.609 34.5859C297.609 33.8828 297.406 33.3906 297 33.1094C296.609 32.8125 295.898 32.6641 294.867 32.6641H294.211V30.5547C294.555 30.5703 295.031 30.5938 295.641 30.625C297.828 30.7656 299.32 30.8359 300.117 30.8359C300.867 30.8359 302.328 30.7656 304.5 30.625C305.125 30.5938 305.609 30.5703 305.953 30.5547V32.6641C305.891 32.6484 305.805 32.6406 305.695 32.6406C305.586 32.625 305.438 32.6172 305.25 32.6172C303.578 32.6172 301.828 35.2422 300 40.4922C299.297 42.4922 298.727 44.0859 298.289 45.2734L296.273 50.5703C296.039 51.1484 295.703 52.0078 295.266 53.1484C293.25 58.3984 291.938 62.125 291.328 64.3281H286.898C286.742 63.6406 286.562 62.9453 286.359 62.2422C286.172 61.5391 285.922 60.7344 285.609 59.8281L280.664 44.9453L274.898 59.4766C274.43 60.6484 274.078 61.5859 273.844 62.2891C273.625 62.9922 273.438 63.6719 273.281 64.3281H268.852C268.664 63.2812 267.43 59.6016 265.148 53.2891L264.352 51.0859L261.984 44.5703C261.625 43.5234 261.148 42.1172 260.555 40.3516C258.805 35.1641 257.141 32.5703 255.562 32.5703C255.422 32.5703 255.203 32.5938 254.906 32.6406C254.859 32.6406 254.82 32.6484 254.789 32.6641V30.5547C256.367 30.6484 257.711 30.7188 258.82 30.7656C259.93 30.8125 260.828 30.8359 261.516 30.8359C262.312 30.8359 263.875 30.7734 266.203 30.6484C267.062 30.6016 267.727 30.5703 268.195 30.5547V32.6641H267.656C266.859 32.6641 266.266 32.8125 265.875 33.1094C265.5 33.3906 265.312 33.8281 265.312 34.4219C265.312 34.9531 265.633 36.125 266.273 37.9375L266.32 38.0781L272.602 56.4531Z" fill="white"/>
<path d="M281.059 63.145C283.744 63.07 287.914 62.92 291.694 62.755L291.634 64.405C287.959 64.615 283.999 64.795 281.299 64.9L281.059 63.145ZM280.984 58.675H293.464V60.355H280.984V58.675ZM283.654 55.795H290.689V57.445H283.654V55.795ZM284.659 59.77L286.714 60.34C286.009 61.75 285.199 63.31 284.524 64.315L282.949 63.79C283.564 62.695 284.284 61.03 284.659 59.77ZM288.379 61.315L289.969 60.49C291.319 61.645 292.714 63.22 293.404 64.36L291.739 65.365C291.109 64.225 289.669 62.515 288.379 61.315ZM287.164 53.02C285.949 54.73 283.609 56.65 281.119 57.835C280.909 57.4 280.429 56.725 280.054 56.335C282.619 55.21 285.019 53.065 286.129 51.295H288.034C289.624 53.5 292.009 55.21 294.394 56.065C293.959 56.515 293.554 57.16 293.224 57.7C290.974 56.65 288.439 54.76 287.164 53.02ZM300.814 63.16H309.364V64.93H300.814V63.16ZM301.429 55.915H309.004V57.64H301.429V55.915ZM304.294 51.415H306.139V64.015H304.294V51.415ZM295.429 54.04H300.349V55.675H295.429V54.04ZM297.574 59.17L299.359 57.04V65.365H297.574V59.17ZM297.574 51.28H299.359V54.805H297.574V51.28ZM299.179 57.55C299.704 57.91 301.399 59.41 301.804 59.785L300.709 61.24C300.124 60.46 298.864 59.08 298.189 58.42L299.179 57.55ZM299.689 54.04H300.049L300.364 53.98L301.369 54.64C300.229 57.565 297.964 60.19 295.729 61.6C295.564 61.12 295.144 60.235 294.874 59.89C296.914 58.78 298.894 56.575 299.689 54.37V54.04ZM319.144 51.97H323.989V53.485H319.144V51.97ZM319.039 57.34H324.214V58.885H319.039V57.34ZM319.624 52.375H320.989V58.09H319.624V52.375ZM315.514 54.64H318.124V56.005H315.514V54.64ZM317.014 59.77L318.394 59.305C318.919 60.445 319.474 61.9 319.669 62.83L318.184 63.385C318.004 62.455 317.509 60.925 317.014 59.77ZM315.469 52H318.814V58.72H315.469V57.28H317.374V53.425H315.469V52ZM313.969 62.335C315.079 62.05 316.759 61.54 318.394 61.03L318.649 62.455C317.284 62.995 315.844 63.535 314.659 63.985L313.969 62.335ZM314.899 52H316.354V62.485L314.899 62.785V52ZM310.249 54.295H314.599V55.93H310.249V54.295ZM311.839 51.265H313.489V65.35H311.839V51.265ZM311.839 55.435L312.889 55.765C312.514 58.105 311.719 61.135 310.729 62.755C310.564 62.275 310.174 61.6 309.919 61.195C310.774 59.785 311.539 57.325 311.839 55.435ZM313.459 56.845C313.744 57.13 314.824 58.435 315.049 58.72L314.164 60.265C313.849 59.56 313.069 58.27 312.709 57.685L313.459 56.845ZM321.709 52.855H323.164V54.625C323.164 57.58 322.774 62.215 318.319 65.35C318.079 65.035 317.539 64.495 317.179 64.24C321.394 61.405 321.709 57.25 321.709 54.61V52.855ZM321.199 59.11H322.624V63.415C322.624 63.505 322.624 63.595 322.654 63.64C322.684 63.7 322.759 63.715 322.834 63.715C322.894 63.715 322.954 63.715 323.029 63.715C323.119 63.715 323.179 63.7 323.224 63.64C323.269 63.595 323.299 63.46 323.329 63.31C323.359 63.055 323.374 62.47 323.374 61.78C323.614 62.005 324.109 62.26 324.469 62.395C324.454 63.145 324.379 63.94 324.304 64.27C324.214 64.615 324.079 64.825 323.854 64.975C323.674 65.125 323.389 65.2 323.119 65.2C322.894 65.2 322.594 65.2 322.414 65.2C322.054 65.2 321.709 65.11 321.484 64.87C321.259 64.615 321.199 64.36 321.199 63.52V59.11ZM325.294 59.395H339.064V60.85H325.294V59.395ZM325.579 51.79H338.704V53.35H325.579V51.79ZM330.289 57.955L332.059 58.405C331.099 59.995 329.824 61.885 328.909 63.085L327.169 62.56C328.099 61.36 329.419 59.425 330.289 57.955ZM334.639 59.935L336.379 60.385C334.894 63.925 331.804 64.945 326.239 65.38C326.119 64.855 325.849 64.225 325.564 63.835C330.619 63.625 333.439 62.815 334.639 59.935ZM328.204 62.68L329.119 61.39C332.569 62.095 336.304 63.13 338.554 63.955L337.474 65.41C335.299 64.525 331.789 63.445 328.204 62.68ZM329.524 52.405H331.219V57.535H329.524V52.405ZM332.929 52.405H334.624V57.535H332.929V52.405ZM327.949 55.615V57.025H336.424V55.615H327.949ZM326.269 54.205H338.224V58.435H326.269V54.205Z" fill="#808080"/>
</svg>
