<svg width="512" height="54" viewBox="0 0 512 54" fill="none" xmlns="http://www.w3.org/2000/svg">
<path d="M167.355 3.55469C167.355 3.78906 167.344 4.16406 167.32 4.67969C167.297 5.17188 167.285 5.53516 167.285 5.76953C167.285 7.33984 167.355 9.00391 167.496 10.7617C167.637 12.5195 167.859 14.4531 168.164 16.5625L164.684 17.1602C164.309 13.668 162.82 10.9609 160.219 9.03906C157.617 7.09375 154.184 6.12109 149.918 6.12109C144.48 6.12109 140.262 7.82031 137.262 11.2188C134.285 14.5938 132.797 19.375 132.797 25.5625C132.797 32.2422 134.484 37.5625 137.859 41.5234C141.258 45.4844 145.793 47.4648 151.465 47.4648C155.027 47.4648 158.062 46.6562 160.57 45.0391C163.102 43.4219 165.152 40.9609 166.723 37.6562L169.816 39.0977C168.879 40.9492 168.059 42.7656 167.355 44.5469C166.652 46.3047 166.055 48.0508 165.562 49.7852C162.727 50.9336 159.949 51.8008 157.23 52.3867C154.535 52.9961 151.934 53.3008 149.426 53.3008C141.27 53.3008 134.66 50.8867 129.598 46.0586C124.535 41.2305 122.004 34.9258 122.004 27.1445C122.004 19.457 124.652 13.1289 129.949 8.16016C135.27 3.16797 142.008 0.671875 150.164 0.671875C153.094 0.671875 155.965 0.90625 158.777 1.375C161.613 1.84375 164.473 2.57031 167.355 3.55469ZM218.086 27.8125C218.086 21.1797 216.551 15.8477 213.48 11.8164C210.41 7.78516 206.379 5.76953 201.387 5.76953C196.605 5.76953 192.785 7.5625 189.926 11.1484C187.09 14.7344 185.672 19.5859 185.672 25.7031C185.672 32.3828 187.219 37.75 190.312 41.8047C193.43 45.8594 197.473 47.8867 202.441 47.8867C207.246 47.8867 211.055 46.0938 213.867 42.5078C216.68 38.9219 218.086 34.0234 218.086 27.8125ZM201.949 0.53125C205.676 0.53125 209.004 1.04688 211.934 2.07812C214.863 3.08594 217.559 4.65625 220.02 6.78906C222.879 9.27344 225.082 12.2383 226.629 15.6836C228.176 19.1055 228.949 22.7383 228.949 26.582C228.949 34.2227 226.359 40.5859 221.18 45.6719C216 50.7578 209.52 53.3008 201.738 53.3008C197.684 53.3008 194.016 52.6445 190.734 51.332C187.453 49.9961 184.547 48.0156 182.016 45.3906C179.672 42.9297 177.879 40.1289 176.637 36.9883C175.418 33.8242 174.809 30.4727 174.809 26.9336C174.809 23.0195 175.57 19.3867 177.094 16.0352C178.641 12.6602 180.879 9.71875 183.809 7.21094C186.246 5.10156 189.059 3.46094 192.246 2.28906C195.434 1.11719 198.668 0.53125 201.949 0.53125ZM266.32 36.3906L275.531 15.6484C277.477 11.2422 278.766 8.13672 279.398 6.33203C280.031 4.50391 280.348 3.12109 280.348 2.18359V1.83203C280.582 1.83203 280.934 1.84375 281.402 1.86719C284.988 2.03125 287.566 2.11328 289.137 2.11328C290.004 2.11328 291.797 2.05469 294.516 1.9375C295.641 1.89063 296.508 1.85547 297.117 1.83203V4.99609C294.703 4.99609 293.098 5.30078 292.301 5.91016C291.527 6.51953 291.141 7.79688 291.141 9.74219C291.141 10.6797 291.188 12.25 291.281 14.4531C291.375 16.6328 291.504 19.0234 291.668 21.625L292.16 30.168C292.559 36.4023 292.852 40.5391 293.039 42.5781C293.227 44.5938 293.414 45.9297 293.602 46.5859C293.789 47.3125 294.27 47.875 295.043 48.2734C295.816 48.6484 296.824 48.8359 298.066 48.8359H298.945L298.91 52C296.918 51.8828 294.984 51.8008 293.109 51.7539C291.234 51.6836 289.5 51.6484 287.906 51.6484C286.992 51.6484 285.785 51.6719 284.285 51.7188C282.785 51.7656 280.535 51.8594 277.535 52V48.8359H278.625C280.547 48.8359 281.871 48.5078 282.598 47.8516C283.348 47.1953 283.723 46.0352 283.723 44.3711C283.723 43.8086 283.711 43.2344 283.688 42.6484C283.688 42.0391 283.652 41.2656 283.582 40.3281L282.141 12.2734L269.414 41.0664C268.195 43.832 267.34 45.9414 266.848 47.3945C266.355 48.8242 265.98 50.1953 265.723 51.5078H261.926C261.715 50.5469 261.422 49.5156 261.047 48.4141C260.672 47.3125 260.098 45.8477 259.324 44.0195L246.457 13.1172C245.777 20.7109 245.25 27.0859 244.875 32.2422C244.523 37.3984 244.348 40.8906 244.348 42.7188C244.348 45.2266 244.688 46.8789 245.367 47.6758C246.047 48.4492 247.395 48.8359 249.41 48.8359H250.395V52C248.098 51.8594 246.223 51.7656 244.77 51.7188C243.34 51.6719 242.098 51.6484 241.043 51.6484C240.48 51.6484 239.672 51.6719 238.617 51.7188C237.586 51.7422 235.5 51.8359 232.359 52L232.324 48.8359C232.371 48.8359 232.453 48.8477 232.57 48.8711C233.18 48.9414 233.602 48.9766 233.836 48.9766C236.93 48.9766 238.816 44.6641 239.496 36.0391C239.684 33.6953 239.836 31.8438 239.953 30.4844L240.762 22.0469C241.043 18.7188 241.266 15.9414 241.43 13.7148C241.594 11.4883 241.676 10.0703 241.676 9.46094C241.676 7.72656 241.336 6.55469 240.656 5.94531C240 5.3125 238.711 4.99609 236.789 4.99609H235.875V1.83203C237.375 1.92578 238.816 1.99609 240.199 2.04297C241.605 2.08984 242.895 2.11328 244.066 2.11328C245.004 2.11328 246.973 2.05469 249.973 1.9375C251.191 1.89063 252.152 1.85547 252.855 1.83203V2.11328C252.855 3.94141 255.598 11.2656 261.082 24.0859C263.285 29.2422 265.031 33.3438 266.32 36.3906ZM318.387 27.3555C319.254 27.4961 320.051 27.6016 320.777 27.6719C321.527 27.7188 322.219 27.7422 322.852 27.7422C326.93 27.7422 330.047 26.8164 332.203 24.9648C334.359 23.0898 335.438 20.418 335.438 16.9492C335.438 13.7148 334.418 11.1719 332.379 9.32031C330.34 7.44531 327.551 6.50781 324.012 6.50781C323.191 6.50781 322.348 6.54297 321.48 6.61328C320.637 6.68359 319.652 6.8125 318.527 7C318.48 9.92969 318.445 12.8945 318.422 15.8945C318.398 18.8945 318.387 22.7148 318.387 27.3555ZM302.707 48.9062C302.918 48.9297 303.129 48.9531 303.34 48.9766C303.551 48.9766 303.867 48.9766 304.289 48.9766C306.164 48.9766 307.43 48.4023 308.086 47.2539C308.766 46.1055 309.105 43.4688 309.105 39.3438V36.3203C309.105 34.9141 309.094 33.8242 309.07 33.0508C309.047 32.2773 309.012 31.5391 308.965 30.8359L308.895 22.3281V9.95312C308.895 8.14844 308.52 6.85938 307.77 6.08594C307.02 5.3125 305.777 4.92578 304.043 4.92578H303.34V1.65625C305.262 1.82031 307.031 1.9375 308.648 2.00781C310.289 2.07812 311.812 2.11328 313.219 2.11328C315.398 2.11328 317.883 2.04297 320.672 1.90234C323.484 1.73828 325.172 1.65625 325.734 1.65625C331.758 1.65625 336.492 2.98047 339.938 5.62891C343.383 8.27734 345.105 11.875 345.105 16.4219C345.105 21.2031 343.324 25 339.762 27.8125C336.199 30.6016 331.312 31.9961 325.102 31.9961C324.07 31.9961 322.23 31.8789 319.582 31.6445C319.066 31.5977 318.691 31.5625 318.457 31.5391V40.2578C318.457 44.0781 318.82 46.4688 319.547 47.4297C320.297 48.3672 321.785 48.8359 324.012 48.8359H325.242V52C322.922 51.8594 320.754 51.7539 318.738 51.6836C316.723 51.6133 314.859 51.5781 313.148 51.5781C312.398 51.5781 311.156 51.6133 309.422 51.6836C307.688 51.7539 305.449 51.8594 302.707 52V48.9062ZM367.219 10.0234L359.555 29.4648C360.445 29.4883 361.383 29.5117 362.367 29.5352C363.375 29.5352 364.711 29.5352 366.375 29.5352C368.297 29.5352 369.797 29.5352 370.875 29.5352C371.953 29.5117 372.961 29.4883 373.898 29.4648L367.219 10.0234ZM365.285 1.58594H373.863C377.238 11.4766 380.449 20.5703 383.496 28.8672C386.566 37.1406 388.711 42.6484 389.93 45.3906C390.445 46.6328 391.09 47.5234 391.863 48.0625C392.66 48.5781 393.715 48.8359 395.027 48.8359H395.801V52C392.824 51.8594 390.539 51.7656 388.945 51.7188C387.352 51.6719 386.016 51.6484 384.938 51.6484C383.906 51.6484 382.57 51.6719 380.93 51.7188C379.289 51.7656 376.91 51.8594 373.793 52V48.8359H374.426C376.277 48.8359 377.531 48.625 378.188 48.2031C378.844 47.7812 379.172 47.0312 379.172 45.9531C379.172 45.625 379.125 45.2383 379.031 44.793C378.961 44.3477 378.797 43.7266 378.539 42.9297L375.656 34.4219C374.32 34.3984 372.562 34.375 370.383 34.3516C368.203 34.3047 366.844 34.2812 366.305 34.2812C365.297 34.2812 363.27 34.3164 360.223 34.3867C359.121 34.4102 358.266 34.4219 357.656 34.4219L357.516 34.7734C355.219 40.375 354.07 43.9141 354.07 45.3906C354.07 46.6094 354.41 47.4883 355.09 48.0273C355.793 48.5664 356.941 48.8359 358.535 48.8359H359.168V52C356.496 51.8594 354.422 51.7656 352.945 51.7188C351.469 51.6719 350.25 51.6484 349.289 51.6484C348.492 51.6484 347.438 51.6719 346.125 51.7188C344.836 51.7656 342.949 51.8594 340.465 52V48.8359C342.152 48.8359 343.5 48.543 344.508 47.957C345.516 47.3711 346.371 46.3867 347.074 45.0039C348.082 43.1758 350.355 38.0664 353.895 29.6758C357.434 21.2852 361.23 11.9219 365.285 1.58594ZM398.648 1.90234C399.539 1.92578 400.934 1.99609 402.832 2.11328C404.754 2.20703 406.125 2.25391 406.945 2.25391C407.672 2.25391 408.938 2.20703 410.742 2.11328C412.57 1.99609 413.918 1.92578 414.785 1.90234C415.113 2.76953 415.594 3.69531 416.227 4.67969C416.859 5.64062 417.691 6.73047 418.723 7.94922L444.562 38.4297C444.539 35.3828 444.504 31.3164 444.457 26.2305C444.363 15.0508 444.188 8.94531 443.93 7.91406C443.602 6.78906 443.086 6.02734 442.383 5.62891C441.68 5.20703 440.52 4.99609 438.902 4.99609H437.742V1.90234C440.297 2.01953 442.242 2.11328 443.578 2.18359C444.914 2.23047 446.016 2.25391 446.883 2.25391C447.914 2.25391 449.156 2.23047 450.609 2.18359C452.062 2.11328 453.891 2.01953 456.094 1.90234V4.99609H455.461C453.961 4.99609 452.859 5.17188 452.156 5.52344C451.453 5.85156 450.949 6.4375 450.645 7.28125C450.27 8.40625 450 13.6914 449.836 23.1367V23.6992L449.695 31.3281C449.648 34.2578 449.613 37.0117 449.59 39.5898C449.566 42.1445 449.555 44.2891 449.555 46.0234C449.555 47.1719 449.59 48.2852 449.66 49.3633C449.754 50.4414 449.883 51.4844 450.047 52.4922H443.156C442.875 51.9062 442.465 51.2383 441.926 50.4883C441.387 49.7383 440.355 48.4609 438.832 46.6562L410.461 13.4688C410.461 24.5547 410.52 32.5117 410.637 37.3398C410.754 42.1445 410.93 44.9805 411.164 45.8477C411.492 46.9727 412.008 47.7578 412.711 48.2031C413.438 48.625 414.609 48.8359 416.227 48.8359H417.316V52C414.645 51.8594 412.617 51.7656 411.234 51.7188C409.875 51.6719 408.75 51.6484 407.859 51.6484C407.109 51.6484 406.078 51.6719 404.766 51.7188C403.477 51.7656 401.414 51.8594 398.578 52V48.8359C398.766 48.8594 398.953 48.8828 399.141 48.9062C399.352 48.9062 399.645 48.9062 400.02 48.9062C403.371 48.9062 405.082 44.3008 405.152 35.0898C405.176 33.0508 405.188 31.4688 405.188 30.3438L405.293 22.8555C405.293 21.332 405.316 19.1523 405.363 16.3164C405.41 13.457 405.434 11.6289 405.434 10.832C405.434 8.55859 405.035 7.01172 404.238 6.19141C403.441 5.34766 402.012 4.92578 399.949 4.92578C399.809 4.92578 399.586 4.9375 399.281 4.96094C399 4.98438 398.789 4.99609 398.648 4.99609V1.90234ZM458.098 1.83203C460.652 1.94922 462.82 2.04297 464.602 2.11328C466.383 2.16016 467.965 2.18359 469.348 2.18359C470.355 2.18359 471.633 2.16016 473.18 2.11328C474.727 2.04297 476.859 1.94922 479.578 1.83203V4.99609C478.008 4.99609 476.859 5.13672 476.133 5.41797C475.406 5.67578 475.043 6.10938 475.043 6.71875C475.043 7.5625 475.512 8.82812 476.449 10.5156C476.707 10.9844 476.906 11.3477 477.047 11.6055L484.816 25.4922L487.172 21.4141C492.141 12.7891 494.625 7.96094 494.625 6.92969C494.625 6.25 494.355 5.75781 493.816 5.45312C493.277 5.14844 492.434 4.99609 491.285 4.99609H490.512V1.83203C492.574 1.94922 494.25 2.04297 495.539 2.11328C496.852 2.16016 497.953 2.18359 498.844 2.18359C499.781 2.18359 500.918 2.16016 502.254 2.11328C503.613 2.04297 505.312 1.94922 507.352 1.83203V4.89062C507.258 4.89062 507.152 4.89062 507.035 4.89062C506.918 4.86719 506.742 4.85547 506.508 4.85547C504.234 4.85547 501.504 7.45703 498.316 12.6602C497.613 13.8555 497.051 14.7812 496.629 15.4375L487.207 30.5547L487.277 41.8047C487.324 44.8047 487.699 46.7383 488.402 47.6055C489.105 48.4727 490.477 48.9062 492.516 48.9062C492.656 48.9062 492.891 48.8945 493.219 48.8711C493.547 48.8477 493.793 48.8359 493.957 48.8359V52C491.379 51.8594 489.082 51.7539 487.066 51.6836C485.051 51.6133 483.34 51.5781 481.934 51.5781C480.668 51.5781 478.137 51.6602 474.34 51.8242C472.746 51.8945 471.492 51.9531 470.578 52V48.8359C470.766 48.8359 471.023 48.8477 471.352 48.8711C471.703 48.8945 471.949 48.9062 472.09 48.9062C474.152 48.9062 475.547 48.4492 476.273 47.5352C477.023 46.6211 477.422 44.7578 477.469 41.9453L477.539 30.8359L465.797 11.1836C465.633 10.9023 465.387 10.4922 465.059 9.95312C463.02 6.60156 461.039 4.92578 459.117 4.92578C458.859 4.92578 458.648 4.9375 458.484 4.96094C458.344 4.96094 458.215 4.96094 458.098 4.96094V1.83203Z" fill="#808080"/>
<path d="M30.38 32.36C28.412 35.288 24.716 38.648 20.732 40.904C20.348 40.232 19.532 39.176 18.884 38.576C23.06 36.416 26.948 32.6 28.748 29.504H31.748C34.34 33.344 38.276 36.608 42.14 38.288C41.42 39.032 40.748 39.992 40.196 40.856C36.476 38.792 32.444 35.336 30.38 32.36ZM30.524 41.528H38.588V44.096H30.524V41.528ZM20.252 48.92H40.772V51.512H20.252V48.92ZM29.084 36.368H32.156V50.312H29.084V36.368ZM22.868 40.52H25.7V50.24H22.868V40.52ZM43.844 44.312H65.252V46.664H43.844V44.312ZM43.892 33.536H65.156V35.912H43.892V33.536ZM44.876 37.832H64.244V40.088H44.876V37.832ZM46.076 41.144H63.116V43.232H46.076V41.144ZM53.036 38.984H55.892V52.16H53.036V38.984ZM50.948 29.6H53.636V34.664H50.948V29.6ZM55.388 29.6H58.124V34.496H55.388V29.6ZM52.508 45.368L54.764 46.376C52.484 48.872 48.644 50.912 44.948 51.872C44.564 51.176 43.724 50.072 43.1 49.472C46.724 48.776 50.54 47.192 52.508 45.368ZM56.468 45.296C58.412 47.192 62.156 48.68 65.9 49.304C65.252 49.904 64.388 51.104 63.956 51.896C60.164 50.936 56.492 48.896 54.236 46.184L56.468 45.296ZM60.908 29.792L63.932 30.512C63.164 31.832 62.348 33.128 61.724 34.016L59.396 33.296C59.948 32.312 60.572 30.848 60.908 29.792ZM57.74 34.952L60.788 35.648C60.14 36.8 59.516 37.856 59.012 38.624L56.564 37.928C56.996 37.064 57.5 35.84 57.74 34.952ZM45.62 30.56L48.092 29.72C48.788 30.752 49.58 32.192 49.916 33.128L47.3 34.064C47.036 33.128 46.268 31.664 45.62 30.56ZM48.668 35.936L51.452 35.504C51.86 36.176 52.316 37.112 52.508 37.76L49.58 38.264C49.436 37.64 49.028 36.632 48.668 35.936ZM77.588 43.448H85.892V45.488H77.588V43.448ZM74.636 31.256H88.964V33.32H74.636V31.256ZM75.284 34.28H88.292V36.224H75.284V34.28ZM73.892 37.232H89.708V39.296H73.892V37.232ZM77.612 46.568H85.94V48.56H77.612V46.568ZM75.5 40.232H85.772V42.32H78.164V52.184H75.5V40.232ZM85.364 40.232H88.076V49.4C88.076 50.648 87.836 51.344 86.972 51.728C86.108 52.136 84.932 52.16 83.252 52.16C83.156 51.44 82.796 50.384 82.484 49.712C83.444 49.76 84.596 49.76 84.932 49.736C85.244 49.736 85.364 49.64 85.364 49.352V40.232ZM80.276 29.624H83.132V37.904H80.276V29.624ZM69.956 29.624H72.548V52.16H69.956V29.624ZM67.892 34.376L69.908 34.616C69.86 36.632 69.476 39.512 68.996 41.384L66.884 40.664C67.412 39.008 67.748 36.32 67.892 34.376ZM72.164 33.632L73.94 32.888C74.444 33.992 75.068 35.456 75.332 36.344L73.46 37.232C73.22 36.296 72.644 34.784 72.164 33.632ZM104.06 38.912H111.404V41.192H104.06V38.912ZM102.644 30.632H111.476V33.152H105.236V52.16H102.644V30.632ZM110.012 30.632H112.676V35.168C112.676 36.392 112.436 37.112 111.5 37.496C110.564 37.88 109.268 37.904 107.492 37.904C107.396 37.16 107.036 36.128 106.7 35.432C107.876 35.48 109.196 35.48 109.532 35.48C109.916 35.456 110.012 35.384 110.012 35.12V30.632ZM107.084 40.592C108.284 44.576 110.708 48.2 114.092 49.904C113.468 50.432 112.628 51.464 112.196 52.184C108.644 50.048 106.292 45.944 104.924 41.144L107.084 40.592ZM110.564 38.912H111.068L111.524 38.792L113.252 39.416C112.388 44.888 110.18 49.544 106.58 52.208C106.148 51.56 105.308 50.72 104.684 50.24C107.972 47.96 109.964 43.808 110.564 39.464V38.912ZM92.084 31.76H101.3V34.136H92.084V31.76ZM91.916 45.296H101.564V47.72H91.916V45.296ZM91.22 35.792H102.188V38.216H91.22V35.792ZM91.7 41H101.828V43.424H91.7V41ZM95.492 29.696H98.156V36.704H95.492V29.696ZM95.492 42.008H98.156V52.088H95.492V42.008ZM98.756 37.856L101.132 38.432C100.652 39.536 100.244 40.616 99.86 41.36L97.82 40.784C98.156 39.968 98.564 38.72 98.756 37.856ZM92.732 38.432L94.868 37.904C95.324 38.792 95.756 40.04 95.852 40.784L93.596 41.408C93.5 40.64 93.14 39.392 92.732 38.432Z" fill="#808080"/>
</svg>
